<?xml version='1.0' encoding='utf-8'?>
<svg viewBox='0 0 608 608' style='background-color:#ffffff00' version='1.1' xmlns='http://www.w3.org/2000/svg' xmlns:xlink='http://www.w3.org/1999/xlink' xml:space='preserve' x='0px' y='0px' width='608' height='608'>
<!-- Creator: SVGBoard, Copyright 2019 David S. Smith <david.smith@gmail.com> -->
<!-- FEN: 5rk1/pp4pp/4p3/2R3Q1/3n4/6qr/P1P2PPP/5RK1 w - - 2 24 -->
<!-- DARK SQUARES -->
<rect x='48' y='48' width='512' height='512' fill='#846c40' />
<!-- LIGHT SQUARES -->
<pattern id='checkerboard' x='48' y='48' width='128' height='128' patternUnits='userSpaceOnUse'>
  <rect x='0' y='0' width='64' height='64' style='fill:#a48c62;' />
  <rect x='64' y='64' width='64' height='64' style='fill:#a48c62;' />
</pattern>
<rect x='48' y='48' width='512' height='512' fill='url(#checkerboard)' />
<!-- BORDER -->
<rect x='48' y='48' width='512' height='512' fill='none' stroke-width='0' stroke-location='outside' stroke='#fff' rx='0' ry='0' />
<rect x='47' y='47' width='514' height='514' fill='none' stroke-width='2' stroke-location='outside' stroke='#000' rx='0' ry='0' />
<!-- PIECES -->
<svg x='368' y='48' width='64' height='64'>
<svg clip-rule="evenodd" fill-rule="evenodd" image-rendering="optimizeQuality" shape-rendering="geometricPrecision" text-rendering="geometricPrecision" viewBox="0 0 50 50" xmlns="http://www.w3.org/2000/svg">
  <path d="M28.4 9.22h4.22v-3.4h6.8v9.3l-5.5 4.24v11.87l4.22 4.21v5.08h3.79v5.93H8.07v-5.93h3.8v-5.08l4.24-4.22V19.36l-5.5-4.24v-9.3h6.77v3.4h4.24v-3.4h6.79z"/>
  <path d="M25.01 35.04H14.74l-1.14 1.07v1.44h22.83v-1.44l-1.15-1.07zM13.6 40.12v2.54h22.83v-2.54zm11.41-27.08h-12.7v1.14l1.82 1.37h21.8l1.76-1.37v-1.14zm0 4.19h-8.68l1.49 1.17v1.41H32.2V18.4l1.48-1.17zm0 13.55h-7.2v1.14l-1.48 1.44H33.7l-1.48-1.44v-1.14z" fill="#fff"/>
</svg>
</svg>
<svg x='432' y='48' width='64' height='64'>
<svg clip-rule="evenodd" fill-rule="evenodd" image-rendering="optimizeQuality" shape-rendering="geometricPrecision" text-rendering="geometricPrecision" viewBox="0 0 50 50" xmlns="http://www.w3.org/2000/svg">
  <path d="M25.82 12.02h-1.76V8.77H22c-.55 0-.83-.27-.83-.82v-.03c0-.54.28-.8.83-.8h2.07V5c0-.58.3-.87.89-.87.57 0 .87.29.87.87v2.11h2.13c.55 0 .82.27.82.81v.03c0 .55-.27.82-.82.82l-2.11.03zM11.03 37.74l-.81-4.64c-.02 0-.05-.03-.08-.1a2.08 2.08 0 0 0-.71-.45 6.4 6.4 0 0 1-1.35-.99 41.99 41.99 0 0 1-1.7-1.49 8.5 8.5 0 0 1-1.1-1.23A9.24 9.24 0 0 1 3.6 23.8c-.16-1.9.6-3.8 2.3-5.68 1.73-1.88 4.05-2.77 6.98-2.65a16.28 16.28 0 0 1 5.32 1.37l1.5.58.7.4a4.38 4.38 0 0 1-.13-1.04c0-1.29.46-2.39 1.38-3.3a4.64 4.64 0 0 1 6.61-.01c.9.92 1.36 2.02 1.36 3.29 0 .26-.03.6-.1 1.04.23-.15.46-.27.67-.38.76-.33 1.76-.72 3-1.16 1.43-.48 2.7-.75 3.85-.82 2.92-.13 5.24.76 6.94 2.65 1.67 1.9 2.45 3.79 2.33 5.68a9.42 9.42 0 0 1-1.7 5.04c-.34.45-.71.87-1.13 1.26a40.5 40.5 0 0 1-1.66 1.47c-.54.46-1 .8-1.38.98-.38.19-.6.35-.67.46a.3.3 0 0 1-.05.07l-.03.05-.8 4.67 1.65 6.12c-.83.75-2.69 1.36-5.56 1.84-2.88.48-6.2.72-9.97.72-3.84 0-7.21-.26-10.12-.76-2.91-.5-4.74-1.14-5.48-1.9z"/>
  <path d="M24.95 20.68a2.3 2.3 0 0 0-.13-.43 5.6 5.6 0 0 0-.24-.72l-.2-.43a9.03 9.03 0 0 1-.25-.56l-.19-.45-.19-.54a1.74 1.74 0 0 1-.06-.47c0-.87.41-1.31 1.26-1.31.88 0 1.31.43 1.31 1.28 0 .22-.03.37-.1.48l-.36 1.01c-.26.5-.41.82-.48.97-.12.27-.2.5-.22.72-.05.1-.08.18-.1.26l-.05.19zm-2.78 8.56c-2.06.03-3.95.13-5.67.32-1.71.17-3.03.44-3.98.77a18.97 18.97 0 0 0-1.72-1.86 33 33 0 0 1-1.73-1.74 3.89 3.89 0 0 1-1.23-2.78c0-1.24.2-2.15.62-2.72a3.9 3.9 0 0 1 2.05-1.49 8.49 8.49 0 0 1 2.8-.48c1.2 0 2.33.26 3.43.8 1.07.56 1.78 1 2.13 1.33 1.13 1.15 2 2.38 2.63 3.72.22.5.38 1.2.49 2.08.1.89.17 1.56.18 2.05zm2.78-4.32c.12-.47.21-.79.3-.97.17-.64.35-1.2.57-1.64.1-.28.24-.6.43-.97.19-.38.4-.8.61-1.28.13-.28.27-.63.42-1.04l.45-1.2c.13-.33.2-.68.2-1.06 0-.82-.3-1.5-.87-2.07a2.87 2.87 0 0 0-2.11-.86c-1.97 0-2.96.99-2.96 2.95 0 .38.07.74.2 1.07.37 1.07.65 1.82.85 2.23.22.48.41.9.6 1.28.17.37.34.7.46.98.22.55.4 1.09.55 1.64.04.09.13.41.3.94zm-.89 6.22c0-.66-.02-1.57-.05-2.73a12.72 12.72 0 0 0-.37-2.92c-.68-2.21-1.7-4-3.08-5.36-.72-.7-1.8-1.34-3.27-1.94a13.16 13.16 0 0 0-4.8-.99c-2.6 0-4.54.94-5.8 2.8a6.22 6.22 0 0 0-1.06 3.72c0 1.63.4 2.96 1.18 4 .42.6 1.21 1.33 2.4 2.21 1.16.87 2.16 1.68 2.96 2.43 1.44-.31 3.07-.58 4.88-.82 1.81-.23 4.15-.37 7.01-.4zm13.78 11.73l-.73-2.92a55.9 55.9 0 0 0-12.16-1.11c-4.83 0-8.87.37-12.1 1.1l-.8 2.96c3.14-.96 7.45-1.44 12.92-1.44 2.63 0 5.08.14 7.32.4 2.25.26 4.1.6 5.55 1.02zm-.64-7.41c-3.04-.84-7.1-1.26-12.15-1.26-5.1 0-9.2.43-12.3 1.28l.37 2.51c3.13-.81 7.1-1.22 11.93-1.22 4.81 0 8.73.4 11.75 1.2zm-11.36-4.3c2.84.06 5.18.2 7 .43 1.81.23 3.46.5 4.91.82.9-.9 1.91-1.74 3.02-2.56s1.9-1.5 2.34-2.08a6.62 6.62 0 0 0 1.19-4.02c0-1.47-.36-2.7-1.07-3.7-1.27-1.86-3.22-2.8-5.83-2.8-1.52 0-3.1.33-4.76 1a9.54 9.54 0 0 0-3.28 1.92 11.94 11.94 0 0 0-3.48 8.27c-.03 1.18-.04 2.08-.04 2.73zm1.81-1.92c0-.49.06-1.16.16-2.05.11-.88.28-1.58.5-2.08a12.88 12.88 0 0 1 2.64-3.72 9.55 9.55 0 0 1 2.14-1.33 7.66 7.66 0 0 1 3.44-.8c.93 0 1.85.16 2.77.48.92.33 1.6.82 2.07 1.49.41.55.62 1.46.62 2.72a4 4 0 0 1-1.22 2.78 40.35 40.35 0 0 1-1.7 1.65c-.62.55-1.2 1.2-1.77 1.95-.95-.33-2.3-.6-4-.77a62.09 62.09 0 0 0-5.65-.33z" fill="#fff"/>
</svg>
</svg>
<svg x='48' y='112' width='64' height='64'>
<svg clip-rule="evenodd" fill-rule="evenodd" image-rendering="optimizeQuality" shape-rendering="geometricPrecision" text-rendering="geometricPrecision" viewBox="0 0 50 50" xmlns="http://www.w3.org/2000/svg">
  <path d="M25 46.4H11.6a13.1 13.1 0 0 1-1-5c0-3 .9-5.6 2.6-8 1.7-2.4 4-4 6.7-5a6.8 6.8 0 0 1-2.9-2.5c-.7-1-1-2.3-1-3.6 0-1.7.5-3.2 1.7-4.4 1.1-1.2 2.6-2 4.3-2.2-1.4-1-2-2.2-2-3.8 0-1.4.4-2.6 1.4-3.5A5 5 0 0 1 25 6.9c1.4 0 2.6.5 3.6 1.5s1.5 2.1 1.5 3.5c0 1.6-.7 2.9-2 3.8 1.6.2 3 1 4.2 2.2a6.2 6.2 0 0 1 1.8 4.4c0 1.3-.4 2.6-1.2 3.6a7 7 0 0 1-2.8 2.4c2.7 1 5 2.7 6.7 5 1.7 2.5 2.6 5.1 2.6 8.1 0 1.7-.4 3.4-1 5z"/>
</svg>
</svg>
<svg x='112' y='112' width='64' height='64'>
<svg clip-rule="evenodd" fill-rule="evenodd" image-rendering="optimizeQuality" shape-rendering="geometricPrecision" text-rendering="geometricPrecision" viewBox="0 0 50 50" xmlns="http://www.w3.org/2000/svg">
  <path d="M25 46.4H11.6a13.1 13.1 0 0 1-1-5c0-3 .9-5.6 2.6-8 1.7-2.4 4-4 6.7-5a6.8 6.8 0 0 1-2.9-2.5c-.7-1-1-2.3-1-3.6 0-1.7.5-3.2 1.7-4.4 1.1-1.2 2.6-2 4.3-2.2-1.4-1-2-2.2-2-3.8 0-1.4.4-2.6 1.4-3.5A5 5 0 0 1 25 6.9c1.4 0 2.6.5 3.6 1.5s1.5 2.1 1.5 3.5c0 1.6-.7 2.9-2 3.8 1.6.2 3 1 4.2 2.2a6.2 6.2 0 0 1 1.8 4.4c0 1.3-.4 2.6-1.2 3.6a7 7 0 0 1-2.8 2.4c2.7 1 5 2.7 6.7 5 1.7 2.5 2.6 5.1 2.6 8.1 0 1.7-.4 3.4-1 5z"/>
</svg>
</svg>
<svg x='432' y='112' width='64' height='64'>
<svg clip-rule="evenodd" fill-rule="evenodd" image-rendering="optimizeQuality" shape-rendering="geometricPrecision" text-rendering="geometricPrecision" viewBox="0 0 50 50" xmlns="http://www.w3.org/2000/svg">
  <path d="M25 46.4H11.6a13.1 13.1 0 0 1-1-5c0-3 .9-5.6 2.6-8 1.7-2.4 4-4 6.7-5a6.8 6.8 0 0 1-2.9-2.5c-.7-1-1-2.3-1-3.6 0-1.7.5-3.2 1.7-4.4 1.1-1.2 2.6-2 4.3-2.2-1.4-1-2-2.2-2-3.8 0-1.4.4-2.6 1.4-3.5A5 5 0 0 1 25 6.9c1.4 0 2.6.5 3.6 1.5s1.5 2.1 1.5 3.5c0 1.6-.7 2.9-2 3.8 1.6.2 3 1 4.2 2.2a6.2 6.2 0 0 1 1.8 4.4c0 1.3-.4 2.6-1.2 3.6a7 7 0 0 1-2.8 2.4c2.7 1 5 2.7 6.7 5 1.7 2.5 2.6 5.1 2.6 8.1 0 1.7-.4 3.4-1 5z"/>
</svg>
</svg>
<svg x='496' y='112' width='64' height='64'>
<svg clip-rule="evenodd" fill-rule="evenodd" image-rendering="optimizeQuality" shape-rendering="geometricPrecision" text-rendering="geometricPrecision" viewBox="0 0 50 50" xmlns="http://www.w3.org/2000/svg">
  <path d="M25 46.4H11.6a13.1 13.1 0 0 1-1-5c0-3 .9-5.6 2.6-8 1.7-2.4 4-4 6.7-5a6.8 6.8 0 0 1-2.9-2.5c-.7-1-1-2.3-1-3.6 0-1.7.5-3.2 1.7-4.4 1.1-1.2 2.6-2 4.3-2.2-1.4-1-2-2.2-2-3.8 0-1.4.4-2.6 1.4-3.5A5 5 0 0 1 25 6.9c1.4 0 2.6.5 3.6 1.5s1.5 2.1 1.5 3.5c0 1.6-.7 2.9-2 3.8 1.6.2 3 1 4.2 2.2a6.2 6.2 0 0 1 1.8 4.4c0 1.3-.4 2.6-1.2 3.6a7 7 0 0 1-2.8 2.4c2.7 1 5 2.7 6.7 5 1.7 2.5 2.6 5.1 2.6 8.1 0 1.7-.4 3.4-1 5z"/>
</svg>
</svg>
<svg x='304' y='176' width='64' height='64'>
<svg clip-rule="evenodd" fill-rule="evenodd" image-rendering="optimizeQuality" shape-rendering="geometricPrecision" text-rendering="geometricPrecision" viewBox="0 0 50 50" xmlns="http://www.w3.org/2000/svg">
  <path d="M25 46.4H11.6a13.1 13.1 0 0 1-1-5c0-3 .9-5.6 2.6-8 1.7-2.4 4-4 6.7-5a6.8 6.8 0 0 1-2.9-2.5c-.7-1-1-2.3-1-3.6 0-1.7.5-3.2 1.7-4.4 1.1-1.2 2.6-2 4.3-2.2-1.4-1-2-2.2-2-3.8 0-1.4.4-2.6 1.4-3.5A5 5 0 0 1 25 6.9c1.4 0 2.6.5 3.6 1.5s1.5 2.1 1.5 3.5c0 1.6-.7 2.9-2 3.8 1.6.2 3 1 4.2 2.2a6.2 6.2 0 0 1 1.8 4.4c0 1.3-.4 2.6-1.2 3.6a7 7 0 0 1-2.8 2.4c2.7 1 5 2.7 6.7 5 1.7 2.5 2.6 5.1 2.6 8.1 0 1.7-.4 3.4-1 5z"/>
</svg>
</svg>
<svg x='176' y='240' width='64' height='64'>
<svg clip-rule="evenodd" fill-rule="evenodd" image-rendering="optimizeQuality" shape-rendering="geometricPrecision" text-rendering="geometricPrecision" viewBox="0 0 50 50" xmlns="http://www.w3.org/2000/svg">
  <path d="M28.4 9.22h4.22v-3.4h6.8v9.3l-5.5 4.24v11.87l4.22 4.21v5.08h3.79v5.93H8.07v-5.93h3.8v-5.08l4.24-4.22V19.36l-5.5-4.24v-9.3h6.77v3.4h4.24v-3.4h6.79z"/>
  <path d="M33.07 17.68l3.15-2.56H13.8l3.18 2.56zm7.2 24.53H9.76v2.55h30.51zm-3.84-5.06H13.6v3.37h22.83zM32.2 19.36H17.8v11.87h14.4zm5.5-5.92V7.5h-3.4v3.4h-7.64V7.5h-3.34v3.4H15.7V7.5h-3.4v5.93zm-1.91 22l-2.55-2.53H16.8l-2.6 2.53z" fill="#fff"/>
</svg>
</svg>
<svg x='432' y='240' width='64' height='64'>
<svg clip-rule="evenodd" fill-rule="evenodd" image-rendering="optimizeQuality" shape-rendering="geometricPrecision" text-rendering="geometricPrecision" viewBox="0 0 50 50" xmlns="http://www.w3.org/2000/svg">
  <path d="M44.54 14.72a3.3 3.3 0 0 1-2.4-.98c-.66-.65-1-1.45-1-2.4 0-.92.34-1.71 1-2.38.66-.68 1.46-1.01 2.4-1.01.93 0 1.73.33 2.39 1 .66.68.99 1.47.99 2.4 0 .94-.33 1.74-1 2.4a3.28 3.28 0 0 1-2.38.97zm-4.3 29.22c-.82.71-2.64 1.3-5.47 1.79-2.83.47-6.09.72-9.77.72-3.75 0-7.05-.26-9.9-.75-2.84-.5-4.64-1.11-5.38-1.86l1.56-5.95-.69-3.9L8.4 30.2 6.3 14.77l1.2-.47 6.8 11.45.16-13.64 1.68-.3 5.19 13.72 2.77-14.75h1.72l2.78 14.7 5.13-13.66 1.71.3.15 13.64 6.83-11.48 1.16.54-2.06 15.36-2.21 3.79-.7 3.94zM14.53 12a3.3 3.3 0 0 1-2.42-.98 3.25 3.25 0 0 1-.99-2.4c0-.91.33-1.71 1-2.37s1.46-1 2.4-1c.93 0 1.72.34 2.39 1s.98 1.46.98 2.38c0 .94-.33 1.74-.99 2.4a3.27 3.27 0 0 1-2.38.97zM5.4 14.72c-.94 0-1.74-.33-2.39-.98a3.26 3.26 0 0 1-.98-2.4c0-.92.33-1.71.98-2.38.65-.68 1.45-1.01 2.39-1.01.95 0 1.74.33 2.41 1 .66.68 1 1.47 1 2.4 0 .94-.34 1.74-1 2.4a3.32 3.32 0 0 1-2.41.97zm19.55-3.97c-.94 0-1.74-.33-2.4-.99a3.3 3.3 0 0 1-.97-2.4c0-.93.32-1.73.97-2.39a3.25 3.25 0 0 1 2.4-.99c.92 0 1.73.33 2.4.99a3.23 3.23 0 0 1 1 2.39c0 .94-.33 1.74-1 2.4a3.3 3.3 0 0 1-2.4 1zM35.36 12c-.94 0-1.73-.32-2.38-.98a3.27 3.27 0 0 1-.99-2.4c0-.91.33-1.71.99-2.37s1.44-1 2.38-1c.95 0 1.76.34 2.42 1s.99 1.46.99 2.38c0 .94-.33 1.74-1 2.4a3.3 3.3 0 0 1-2.4.97z" stroke="#1f1a17" stroke-width=".08"/>
  <path d="M38.22 43.04c-3.03-1.25-7.42-1.88-13.17-1.88-5.88 0-10.31.65-13.33 1.93 2.9 1.15 7.32 1.71 13.25 1.71 2.85 0 5.45-.15 7.8-.46a21.3 21.3 0 0 0 5.45-1.3zM24.95 9.02c1.1 0 1.66-.56 1.66-1.66 0-1.1-.55-1.65-1.66-1.65-1.1 0-1.63.55-1.63 1.65 0 1.1.54 1.66 1.63 1.66zm12.62 24.97c-3.19-.8-7.36-1.2-12.52-1.2-5.3 0-9.52.4-12.67 1.23l.37 2.38c3.22-.76 7.32-1.15 12.3-1.15 4.95 0 8.98.38 12.1 1.12zm.62-1.49l1.62-2.85a6.43 6.43 0 0 1-2.43.47c-2.22 0-3.99-.9-5.31-2.7a5.1 5.1 0 0 1-3.33 1.24 4.51 4.51 0 0 1-3.8-1.86 4.96 4.96 0 0 1-7.06.52 6.53 6.53 0 0 1-5.38 2.65 7.05 7.05 0 0 1-2.51-.46l1.73 2.97c3.21-.93 7.62-1.4 13.23-1.4 5.7 0 10.12.48 13.24 1.42zm-11.1-5.92l-2.11-12.14-2.11 12 .34-.26c.38-.75.96-1.12 1.74-1.12.85 0 1.39.37 1.63 1.12.1.1.27.24.5.4zm6.86.47V15.56l-4.1 11.26c.32-.1.59-.26.8-.44.34-.41.79-.63 1.34-.63.66 0 1.2.3 1.6.88l.16.2.2.22zM20 26.7l-4.06-11.14V26.9c.04-.07.12-.15.22-.25.33-.7.87-1.04 1.63-1.04.63 0 1.15.26 1.54.8l.67.3zm-6.3 1.4l-5.33-9.21 1.36 8.38c.94.66 1.87 1 2.75 1 .35 0 .76-.07 1.22-.18zm22.4.11a4.78 4.78 0 0 0 4.1-.76l1.36-8.59zm1.49 12.56l-.75-2.8a56.6 56.6 0 0 0-11.9-1.07c-4.65 0-8.61.35-11.88 1.06l-.77 2.83c3.07-.93 7.3-1.39 12.68-1.39 5.24 0 9.44.45 12.62 1.37zM14.53 10.25c1.09 0 1.64-.54 1.64-1.63s-.55-1.63-1.64-1.63c-1.1 0-1.66.54-1.66 1.63s.56 1.63 1.67 1.63zm20.83 0c1.11 0 1.67-.54 1.67-1.63s-.56-1.63-1.67-1.63c-1.08 0-1.63.54-1.63 1.63s.55 1.63 1.63 1.63zM5.4 13c1.1 0 1.67-.55 1.67-1.65 0-1.1-.56-1.66-1.67-1.66-1.08 0-1.63.55-1.63 1.66 0 1.1.55 1.65 1.63 1.65zm39.14 0c1.1 0 1.64-.55 1.64-1.65 0-1.1-.55-1.66-1.64-1.66-1.1 0-1.66.55-1.66 1.66 0 1.1.56 1.65 1.66 1.65z" fill="#fff" stroke="#1f1a17" stroke-width=".08"/>
</svg>
</svg>
<svg x='240' y='304' width='64' height='64'>
<svg clip-rule="evenodd" fill-rule="evenodd" image-rendering="optimizeQuality" shape-rendering="geometricPrecision" text-rendering="geometricPrecision" viewBox="0 0 50 50" xmlns="http://www.w3.org/2000/svg">
  <path d="M26.18 9.4c2.6.16 5 .83 7.22 2.01a18.96 18.96 0 0 1 5.66 4.51 26.08 26.08 0 0 1 3.08 4.67 28.68 28.68 0 0 1 2.32 5.77 36.51 36.51 0 0 1 1.25 7.46c.18 2.6.26 5.01.26 7.23v5.4h-30.5c-.16 0-.22-.4-.21-1.2 0-.82.06-1.47.16-1.97.06-.4.22-.96.46-1.69.26-.72.66-1.6 1.25-2.65.26-.53.89-1.3 1.88-2.32 1-1.01 2.13-2.2 3.43-3.53a7.93 7.93 0 0 0 1.74-2.88c.42-1.16.6-2.2.53-3.15a8.37 8.37 0 0 1-2 1.22c-3.5 1.25-6.05 3.07-7.62 5.45-.11.15-.48.82-1.11 2.01a5.68 5.68 0 0 1-.85 1.29c-.31.31-.77.5-1.36.53-.92.04-1.64-.4-2.16-1.35-.7.2-1.31.29-1.86.25a5.98 5.98 0 0 1-2.01-1.11 6.27 6.27 0 0 1-1.65-2.54 9.43 9.43 0 0 1-.38-2.72c0-1.4.85-3.23 2.58-5.51 2.02-2.63 3.09-4.63 3.22-6 0-.6.06-1.27.18-2.01a4.2 4.2 0 0 1 .61-1.5l.44-.67c.07-.13.2-.31.41-.56.14-.2.27-.35.37-.46.1-.1.22-.25.38-.44.17-.2.4-.45.69-.74a18.06 18.06 0 0 1-1.07-7.46 19.67 19.67 0 0 1 8.28 5.53 8.36 8.36 0 0 1 3.23-4.54 9.91 9.91 0 0 1 3.15 3.67z"/>
  <path d="M15.69 17.79l.54-.28c.5-.2.65-.56.47-1.1-.2-.49-.57-.66-1.14-.49a6.55 6.55 0 0 0-4.04 3.92c-.12.55.08.92.6 1.12.51.16.86-.02 1.04-.55.13-.28.23-.46.3-.54.18.14.42.24.71.3 1.01.16 1.6-.28 1.76-1.34a1.5 1.5 0 0 0-.24-1.04zm-4.12 16.76c.06-.15.17-.37.33-.67.27-.7.41-1.1.41-1.24-.03-.46-.27-.7-.72-.7-.33 0-.71.48-1.16 1.42a.97.97 0 0 1-.3.34c-.45.47-.38.86.2 1.17.53.31.94.21 1.24-.32zm14.63-9.2a8.05 8.05 0 0 0 1.71-5.08c-.06-.55-.38-.82-.94-.82-.76 0-1.05.27-.9.83.06.92-.03 1.67-.26 2.26a6.5 6.5 0 0 1-1.27 2.11c-.25.5-.1.87.45 1.1.53.24.93.11 1.21-.4zm-6.47-12.11a6.8 6.8 0 0 1 .05-1.93c-1 .2-1.93.66-2.8 1.39-.53.28-.66.67-.38 1.17.28.5.67.59 1.17.24l.96-.5c.28-.17.61-.29 1-.37zm23.25 31.45c-.02 0 0-.44.04-1.34.13-3.11.1-6.22.07-9.33a26.84 26.84 0 0 0-.89-6.62 28.5 28.5 0 0 0-4.07-9.3c-2.63-3.84-6.81-6.03-11.28-6.97.12.77.03 1.54.07 2.31a25.82 25.82 0 0 1 4.54 2.04c4.24 2.55 6.41 7.27 7.2 11.93 1.27 6.15.45 11.55.81 17.28zM9.44 30.14c.47-.34.52-.73.14-1.2-.4-.38-.83-.41-1.3-.1a3.27 3.27 0 0 0-1.63 2.61c.02.54.35.8.98.77.59-.05.88-.35.86-.92.14-.53.45-.92.95-1.16z" fill="#fff"/>
</svg>
</svg>
<svg x='432' y='368' width='64' height='64'>
<svg clip-rule="evenodd" fill-rule="evenodd" image-rendering="optimizeQuality" shape-rendering="geometricPrecision" text-rendering="geometricPrecision" viewBox="0 0 50 50" xmlns="http://www.w3.org/2000/svg">
  <path d="M24.95 10.75c-.94 0-1.75-.33-2.4-.99a3.3 3.3 0 0 1-.97-2.4c0-.93.32-1.73.97-2.39a3.25 3.25 0 0 1 2.4-.99c.92 0 1.73.33 2.4.99a3.23 3.23 0 0 1 1 2.39c0 .94-.33 1.74-1 2.4a3.3 3.3 0 0 1-2.4 1zm15.28 33.2c-.81.7-2.63 1.3-5.46 1.78-2.83.47-6.09.72-9.77.72-3.75 0-7.05-.26-9.9-.75-2.84-.5-4.64-1.11-5.38-1.86l1.56-5.95-.69-3.9L8.4 30.2 6.3 14.77l1.2-.47 6.8 11.45.16-13.64 1.68-.3 5.19 13.72 2.77-14.75h1.72l2.78 14.7 5.13-13.66 1.71.3.15 13.64 6.83-11.48 1.16.54-2.06 15.36-2.21 3.79-.7 3.94zm-25.7-31.96a3.3 3.3 0 0 1-2.4-.97 3.25 3.25 0 0 1-1-2.4c0-.92.33-1.72 1-2.38s1.46-1 2.4-1c.93 0 1.72.34 2.39 1s.98 1.46.98 2.38c0 .94-.33 1.74-.99 2.4a3.27 3.27 0 0 1-2.38.97zm20.83 0c-.94 0-1.73-.32-2.38-.97a3.27 3.27 0 0 1-.99-2.4c0-.92.33-1.72.99-2.38s1.44-1 2.38-1c.95 0 1.76.34 2.42 1s.99 1.46.99 2.38c0 .94-.33 1.74-1 2.4a3.3 3.3 0 0 1-2.4.97zM5.4 14.72c-.94 0-1.74-.33-2.39-.98a3.26 3.26 0 0 1-.98-2.4c0-.92.33-1.71.98-2.38.65-.68 1.45-1.01 2.39-1.01.95 0 1.74.33 2.41 1 .66.68 1 1.47 1 2.4 0 .94-.34 1.74-1 2.4a3.32 3.32 0 0 1-2.41.97zm39.14 0a3.3 3.3 0 0 1-2.4-.98c-.66-.65-1-1.45-1-2.4 0-.92.34-1.71 1-2.38.66-.68 1.46-1.01 2.4-1.01.93 0 1.73.33 2.39 1 .66.68.99 1.47.99 2.4 0 .94-.33 1.74-1 2.4a3.28 3.28 0 0 1-2.38.97z" />
  <path d="M37.2 35.73c-3.04-.84-7.1-1.26-12.15-1.26-5.1 0-9.2.43-12.3 1.28l.37 2.51c3.13-.81 7.1-1.22 11.93-1.22 4.81 0 8.73.4 11.75 1.2zm1.74-4.44c-1.38-.5-3.3-.9-5.8-1.23a64.54 64.54 0 0 0-8.24-.48c-2.95 0-5.64.15-8.09.46-2.44.3-4.38.7-5.78 1.2l1.24 2.25c1.4-.4 3.2-.7 5.41-.89 2.21-.17 4.64-.27 7.27-.27s5.06.1 7.29.27c2.23.2 4.05.5 5.43.92zm-1.1 11.86l-.73-2.93a55.91 55.91 0 0 0-12.16-1.11c-4.83 0-8.87.37-12.1 1.1l-.8 2.96c3.15-.96 7.45-1.44 12.92-1.44 2.63 0 5.08.14 7.32.4 2.25.26 4.1.6 5.55 1.02z" fill="#fff" />
</svg>
</svg>
<svg x='496' y='368' width='64' height='64'>
<svg clip-rule="evenodd" fill-rule="evenodd" image-rendering="optimizeQuality" shape-rendering="geometricPrecision" text-rendering="geometricPrecision" viewBox="0 0 50 50" xmlns="http://www.w3.org/2000/svg">
  <path d="M28.4 9.22h4.22v-3.4h6.8v9.3l-5.5 4.24v11.87l4.22 4.21v5.08h3.79v5.93H8.07v-5.93h3.8v-5.08l4.24-4.22V19.36l-5.5-4.24v-9.3h6.77v3.4h4.24v-3.4h6.79z"/>
  <path d="M25.01 35.04H14.74l-1.14 1.07v1.44h22.83v-1.44l-1.15-1.07zM13.6 40.12v2.54h22.83v-2.54zm11.41-27.08h-12.7v1.14l1.82 1.37h21.8l1.76-1.37v-1.14zm0 4.19h-8.68l1.49 1.17v1.41H32.2V18.4l1.48-1.17zm0 13.55h-7.2v1.14l-1.48 1.44H33.7l-1.48-1.44v-1.14z" fill="#fff"/>
</svg>
</svg>
<svg x='48' y='432' width='64' height='64'>
<svg clip-rule="evenodd" fill-rule="evenodd" image-rendering="optimizeQuality" shape-rendering="geometricPrecision" text-rendering="geometricPrecision" viewBox="0 0 50 50" xmlns="http://www.w3.org/2000/svg">
  <path d="M25 46.4H11.6a13.1 13.1 0 0 1-1-5c0-3 .9-5.6 2.6-8 1.7-2.4 4-4 6.7-5a6.8 6.8 0 0 1-2.9-2.5c-.7-1-1-2.3-1-3.6 0-1.7.5-3.2 1.7-4.4 1.1-1.2 2.6-2 4.3-2.2-1.4-1-2-2.2-2-3.8 0-1.4.4-2.6 1.4-3.5A5 5 0 0 1 25 6.9a5 5 0 0 1 3.6 1.5c1 1 1.5 2.1 1.5 3.5 0 1.6-.7 2.9-2 3.8 1.6.2 3 1 4.2 2.2a6.2 6.2 0 0 1 1.8 4.4c0 1.3-.4 2.6-1.2 3.6a7 7 0 0 1-2.8 2.4c2.7 1 5 2.7 6.7 5 1.7 2.5 2.6 5.1 2.6 8.1 0 1.7-.4 3.4-1 5z"/>
  <path d="M25 44.8h12.2a11.8 11.8 0 0 0 .5-3.4c0-2.5-.7-4.8-2.1-6.8-1.5-2-3.3-3.6-5.6-4.5-1.5-.7-1.6-.7-1.6-1.8 0-.8.6-1.5 1.7-1.9a4.8 4.8 0 0 0 1-7.4 5 5 0 0 0-3.1-1.6c-1 0-1.5-.6-1.5-1.6 0-.5.1-.9.5-1.3a3.1 3.1 0 0 0 .3-5 3.3 3.3 0 0 0-4.7 0 3.1 3.1 0 0 0-1 2.4c0 1 .5 2 1.4 2.6.3.4.5.8.5 1.3 0 1-.5 1.5-1.5 1.6a4.9 4.9 0 0 0-3 1.6c-1 1-1.4 2-1.4 3.3 0 1.7.8 3 2.3 4.1 1.1.5 1.7 1 1.7 2s0 1-1.7 1.7c-2.2 1-4 2.4-5.5 4.5a11.7 11.7 0 0 0-1.6 10.2z" fill="#fff"/>
</svg>
</svg>
<svg x='176' y='432' width='64' height='64'>
<svg clip-rule="evenodd" fill-rule="evenodd" image-rendering="optimizeQuality" shape-rendering="geometricPrecision" text-rendering="geometricPrecision" viewBox="0 0 50 50" xmlns="http://www.w3.org/2000/svg">
  <path d="M25 46.4H11.6a13.1 13.1 0 0 1-1-5c0-3 .9-5.6 2.6-8 1.7-2.4 4-4 6.7-5a6.8 6.8 0 0 1-2.9-2.5c-.7-1-1-2.3-1-3.6 0-1.7.5-3.2 1.7-4.4 1.1-1.2 2.6-2 4.3-2.2-1.4-1-2-2.2-2-3.8 0-1.4.4-2.6 1.4-3.5A5 5 0 0 1 25 6.9a5 5 0 0 1 3.6 1.5c1 1 1.5 2.1 1.5 3.5 0 1.6-.7 2.9-2 3.8 1.6.2 3 1 4.2 2.2a6.2 6.2 0 0 1 1.8 4.4c0 1.3-.4 2.6-1.2 3.6a7 7 0 0 1-2.8 2.4c2.7 1 5 2.7 6.7 5 1.7 2.5 2.6 5.1 2.6 8.1 0 1.7-.4 3.4-1 5z"/>
  <path d="M25 44.8h12.2a11.8 11.8 0 0 0 .5-3.4c0-2.5-.7-4.8-2.1-6.8-1.5-2-3.3-3.6-5.6-4.5-1.5-.7-1.6-.7-1.6-1.8 0-.8.6-1.5 1.7-1.9a4.8 4.8 0 0 0 1-7.4 5 5 0 0 0-3.1-1.6c-1 0-1.5-.6-1.5-1.6 0-.5.1-.9.5-1.3a3.1 3.1 0 0 0 .3-5 3.3 3.3 0 0 0-4.7 0 3.1 3.1 0 0 0-1 2.4c0 1 .5 2 1.4 2.6.3.4.5.8.5 1.3 0 1-.5 1.5-1.5 1.6a4.9 4.9 0 0 0-3 1.6c-1 1-1.4 2-1.4 3.3 0 1.7.8 3 2.3 4.1 1.1.5 1.7 1 1.7 2s0 1-1.7 1.7c-2.2 1-4 2.4-5.5 4.5a11.7 11.7 0 0 0-1.6 10.2z" fill="#fff"/>
</svg>
</svg>
<svg x='368' y='432' width='64' height='64'>
<svg clip-rule="evenodd" fill-rule="evenodd" image-rendering="optimizeQuality" shape-rendering="geometricPrecision" text-rendering="geometricPrecision" viewBox="0 0 50 50" xmlns="http://www.w3.org/2000/svg">
  <path d="M25 46.4H11.6a13.1 13.1 0 0 1-1-5c0-3 .9-5.6 2.6-8 1.7-2.4 4-4 6.7-5a6.8 6.8 0 0 1-2.9-2.5c-.7-1-1-2.3-1-3.6 0-1.7.5-3.2 1.7-4.4 1.1-1.2 2.6-2 4.3-2.2-1.4-1-2-2.2-2-3.8 0-1.4.4-2.6 1.4-3.5A5 5 0 0 1 25 6.9a5 5 0 0 1 3.6 1.5c1 1 1.5 2.1 1.5 3.5 0 1.6-.7 2.9-2 3.8 1.6.2 3 1 4.2 2.2a6.2 6.2 0 0 1 1.8 4.4c0 1.3-.4 2.6-1.2 3.6a7 7 0 0 1-2.8 2.4c2.7 1 5 2.7 6.7 5 1.7 2.5 2.6 5.1 2.6 8.1 0 1.7-.4 3.4-1 5z"/>
  <path d="M25 44.8h12.2a11.8 11.8 0 0 0 .5-3.4c0-2.5-.7-4.8-2.1-6.8-1.5-2-3.3-3.6-5.6-4.5-1.5-.7-1.6-.7-1.6-1.8 0-.8.6-1.5 1.7-1.9a4.8 4.8 0 0 0 1-7.4 5 5 0 0 0-3.1-1.6c-1 0-1.5-.6-1.5-1.6 0-.5.1-.9.5-1.3a3.1 3.1 0 0 0 .3-5 3.3 3.3 0 0 0-4.7 0 3.1 3.1 0 0 0-1 2.4c0 1 .5 2 1.4 2.6.3.4.5.8.5 1.3 0 1-.5 1.5-1.5 1.6a4.9 4.9 0 0 0-3 1.6c-1 1-1.4 2-1.4 3.3 0 1.7.8 3 2.3 4.1 1.1.5 1.7 1 1.7 2s0 1-1.7 1.7c-2.2 1-4 2.4-5.5 4.5a11.7 11.7 0 0 0-1.6 10.2z" fill="#fff"/>
</svg>
</svg>
<svg x='432' y='432' width='64' height='64'>
<svg clip-rule="evenodd" fill-rule="evenodd" image-rendering="optimizeQuality" shape-rendering="geometricPrecision" text-rendering="geometricPrecision" viewBox="0 0 50 50" xmlns="http://www.w3.org/2000/svg">
  <path d="M25 46.4H11.6a13.1 13.1 0 0 1-1-5c0-3 .9-5.6 2.6-8 1.7-2.4 4-4 6.7-5a6.8 6.8 0 0 1-2.9-2.5c-.7-1-1-2.3-1-3.6 0-1.7.5-3.2 1.7-4.4 1.1-1.2 2.6-2 4.3-2.2-1.4-1-2-2.2-2-3.8 0-1.4.4-2.6 1.4-3.5A5 5 0 0 1 25 6.9a5 5 0 0 1 3.6 1.5c1 1 1.5 2.1 1.5 3.5 0 1.6-.7 2.9-2 3.8 1.6.2 3 1 4.2 2.2a6.2 6.2 0 0 1 1.8 4.4c0 1.3-.4 2.6-1.2 3.6a7 7 0 0 1-2.8 2.4c2.7 1 5 2.7 6.7 5 1.7 2.5 2.6 5.1 2.6 8.1 0 1.7-.4 3.4-1 5z"/>
  <path d="M25 44.8h12.2a11.8 11.8 0 0 0 .5-3.4c0-2.5-.7-4.8-2.1-6.8-1.5-2-3.3-3.6-5.6-4.5-1.5-.7-1.6-.7-1.6-1.8 0-.8.6-1.5 1.7-1.9a4.8 4.8 0 0 0 1-7.4 5 5 0 0 0-3.1-1.6c-1 0-1.5-.6-1.5-1.6 0-.5.1-.9.5-1.3a3.1 3.1 0 0 0 .3-5 3.3 3.3 0 0 0-4.7 0 3.1 3.1 0 0 0-1 2.4c0 1 .5 2 1.4 2.6.3.4.5.8.5 1.3 0 1-.5 1.5-1.5 1.6a4.9 4.9 0 0 0-3 1.6c-1 1-1.4 2-1.4 3.3 0 1.7.8 3 2.3 4.1 1.1.5 1.7 1 1.7 2s0 1-1.7 1.7c-2.2 1-4 2.4-5.5 4.5a11.7 11.7 0 0 0-1.6 10.2z" fill="#fff"/>
</svg>
</svg>
<svg x='496' y='432' width='64' height='64'>
<svg clip-rule="evenodd" fill-rule="evenodd" image-rendering="optimizeQuality" shape-rendering="geometricPrecision" text-rendering="geometricPrecision" viewBox="0 0 50 50" xmlns="http://www.w3.org/2000/svg">
  <path d="M25 46.4H11.6a13.1 13.1 0 0 1-1-5c0-3 .9-5.6 2.6-8 1.7-2.4 4-4 6.7-5a6.8 6.8 0 0 1-2.9-2.5c-.7-1-1-2.3-1-3.6 0-1.7.5-3.2 1.7-4.4 1.1-1.2 2.6-2 4.3-2.2-1.4-1-2-2.2-2-3.8 0-1.4.4-2.6 1.4-3.5A5 5 0 0 1 25 6.9a5 5 0 0 1 3.6 1.5c1 1 1.5 2.1 1.5 3.5 0 1.6-.7 2.9-2 3.8 1.6.2 3 1 4.2 2.2a6.2 6.2 0 0 1 1.8 4.4c0 1.3-.4 2.6-1.2 3.6a7 7 0 0 1-2.8 2.4c2.7 1 5 2.7 6.7 5 1.7 2.5 2.6 5.1 2.6 8.1 0 1.7-.4 3.4-1 5z"/>
  <path d="M25 44.8h12.2a11.8 11.8 0 0 0 .5-3.4c0-2.5-.7-4.8-2.1-6.8-1.5-2-3.3-3.6-5.6-4.5-1.5-.7-1.6-.7-1.6-1.8 0-.8.6-1.5 1.7-1.9a4.8 4.8 0 0 0 1-7.4 5 5 0 0 0-3.1-1.6c-1 0-1.5-.6-1.5-1.6 0-.5.1-.9.5-1.3a3.1 3.1 0 0 0 .3-5 3.3 3.3 0 0 0-4.7 0 3.1 3.1 0 0 0-1 2.4c0 1 .5 2 1.4 2.6.3.4.5.8.5 1.3 0 1-.5 1.5-1.5 1.6a4.9 4.9 0 0 0-3 1.6c-1 1-1.4 2-1.4 3.3 0 1.7.8 3 2.3 4.1 1.1.5 1.7 1 1.7 2s0 1-1.7 1.7c-2.2 1-4 2.4-5.5 4.5a11.7 11.7 0 0 0-1.6 10.2z" fill="#fff"/>
</svg>
</svg>
<svg x='368' y='496' width='64' height='64'>
<svg clip-rule="evenodd" fill-rule="evenodd" image-rendering="optimizeQuality" shape-rendering="geometricPrecision" text-rendering="geometricPrecision" viewBox="0 0 50 50" xmlns="http://www.w3.org/2000/svg">
  <path d="M28.4 9.22h4.22v-3.4h6.8v9.3l-5.5 4.24v11.87l4.22 4.21v5.08h3.79v5.93H8.07v-5.93h3.8v-5.08l4.24-4.22V19.36l-5.5-4.24v-9.3h6.77v3.4h4.24v-3.4h6.79z"/>
  <path d="M33.07 17.68l3.15-2.56H13.8l3.18 2.56zm7.2 24.53H9.76v2.55h30.51zm-3.84-5.06H13.6v3.37h22.83zM32.2 19.36H17.8v11.87h14.4zm5.5-5.92V7.5h-3.4v3.4h-7.64V7.5h-3.34v3.4H15.7V7.5h-3.4v5.93zm-1.91 22l-2.55-2.53H16.8l-2.6 2.53z" fill="#fff"/>
</svg>
</svg>
<svg x='432' y='496' width='64' height='64'>
<svg clip-rule="evenodd" fill-rule="evenodd" image-rendering="optimizeQuality" shape-rendering="geometricPrecision" text-rendering="geometricPrecision" viewBox="0 0 50 50" xmlns="http://www.w3.org/2000/svg">
  <path d="M25.82 12.02h-1.76V8.77H22c-.55 0-.83-.27-.83-.82v-.03c0-.54.28-.8.83-.8h2.07V5c0-.58.3-.87.89-.87.57 0 .87.29.87.87v2.11h2.13c.55 0 .82.27.82.81v.03c0 .55-.27.82-.82.82l-2.11.03zM11.03 37.74l-.81-4.64c-.02 0-.05-.03-.08-.1a2.08 2.08 0 0 0-.71-.45 6.4 6.4 0 0 1-1.35-.99 41.99 41.99 0 0 1-1.7-1.49 8.5 8.5 0 0 1-1.1-1.23A9.24 9.24 0 0 1 3.6 23.8c-.16-1.9.6-3.8 2.3-5.68 1.73-1.88 4.05-2.77 6.98-2.65a16.28 16.28 0 0 1 5.32 1.37l1.5.58.7.4a4.38 4.38 0 0 1-.13-1.04c0-1.29.46-2.39 1.38-3.3a4.64 4.64 0 0 1 6.61-.01c.9.92 1.36 2.02 1.36 3.29 0 .26-.03.6-.1 1.04.23-.15.46-.27.67-.38.76-.33 1.76-.72 3-1.16 1.43-.48 2.7-.75 3.85-.82 2.92-.13 5.24.76 6.94 2.65 1.67 1.9 2.45 3.79 2.33 5.68a9.42 9.42 0 0 1-1.7 5.04c-.34.45-.71.87-1.13 1.26a40.5 40.5 0 0 1-1.66 1.47c-.54.46-1 .8-1.38.98-.38.19-.6.35-.67.46a.3.3 0 0 1-.05.07l-.03.05-.8 4.67 1.65 6.12c-.83.75-2.69 1.36-5.56 1.84-2.88.48-6.2.72-9.97.72-3.84 0-7.21-.26-10.12-.76-2.91-.5-4.74-1.14-5.48-1.9z"/>
  <path d="M25.8 29.53c2.84.03 5.44.2 7.8.51 2.37.3 4.23.7 5.56 1.15a126.32 126.32 0 0 0 2.06-1.65 12.02 12.02 0 0 0 1.87-1.85 6.3 6.3 0 0 0 1.18-4c0-1.47-.36-2.72-1.07-3.7-1.27-1.86-3.2-2.79-5.8-2.79-1.55 0-3.15.33-4.79.97a10.25 10.25 0 0 0-3.27 1.94 12.6 12.6 0 0 0-3.54 9.42zm-13.25 6.7c3.14-.8 7.3-1.2 12.5-1.2 5.09 0 9.2.38 12.33 1.15l.62-3.65c-3.33-.87-7.67-1.31-13.05-1.31-5.41 0-9.75.45-13.02 1.33zm25.3 4.4l-.74-2.84a57.2 57.2 0 0 0-12.16-1.09c-4.81 0-8.86.37-12.13 1.1l-.8 2.86c3.17-.92 7.48-1.38 12.95-1.38 5.45 0 9.73.45 12.87 1.36zm.65 2.35c-3.2-1.29-7.68-1.94-13.45-1.94-5.99 0-10.52.66-13.6 1.99 2.92 1.15 7.42 1.73 13.52 1.73 2.92 0 5.57-.16 7.96-.48 2.4-.32 4.25-.76 5.57-1.3zM24.08 29.53c-.01-.64-.04-1.29-.07-1.92s-.16-1.35-.37-2.13c-.68-2.2-1.7-4-3.08-5.35-.72-.7-1.8-1.34-3.27-1.94a13.16 13.16 0 0 0-4.8-.99c-2.6 0-4.54.94-5.8 2.8a6.22 6.22 0 0 0-1.06 3.72c0 1.63.4 2.96 1.18 4 .49.61 1.1 1.23 1.84 1.84.75.6 1.44 1.17 2.08 1.66 2.9-1.04 7.34-1.6 13.35-1.69zm.87-4.61c.12-.47.21-.79.3-.97.17-.64.35-1.2.57-1.64.1-.28.24-.6.43-.97.19-.38.4-.8.61-1.28.13-.28.27-.63.42-1.04l.45-1.2c.13-.33.2-.68.2-1.06 0-.82-.3-1.5-.87-2.07a2.87 2.87 0 0 0-2.11-.86c-1.97 0-2.96.99-2.96 2.95 0 .38.07.74.2 1.07.37 1.07.65 1.82.85 2.23.22.48.41.9.6 1.28.17.37.34.7.46.98.22.55.4 1.09.55 1.64l.3.94z" fill="#fff"/>
</svg>
</svg>
</svg>
