<svg clip-rule="evenodd" fill-rule="evenodd" image-rendering="optimizeQuality" shape-rendering="geometricPrecision" text-rendering="geometricPrecision" viewBox="0 0 50 50" xmlns="http://www.w3.org/2000/svg"><linearGradient id="a" gradientUnits="userSpaceOnUse" x1="21.09" x2="77.67" y1="37.1" y2="37.47"><stop offset="0" stop-color="#fff"/><stop offset="1" stop-color="#fff" stop-opacity="0"/></linearGradient><path d="M25 42.16c-.23.94-.52 1.6-.85 1.96-.33.36-.76.74-1.3 1.14-.6.42-1.3.76-2.12 1.05-.81.29-1.7.36-2.7.21l-6.97-.96a2.86 2.86 0 0 0-.76 0c-.22.03-.43.05-.63.05-.35 0-.79.07-1.32.23-.55.16-.96.39-1.26.68l-2.4-3.94c.3-.33.56-.56.79-.7.23-.12.5-.27.82-.41a9.18 9.18 0 0 1 3.07-.82c.47-.04.92-.05 1.36-.03a9.8 9.8 0 0 0 1.4-.05c.89.15 1.79.29 2.68.4l2.72.4c1 0 1.66-.1 2-.3.2-.1.48-.29.88-.55.4-.26.8-.65 1.2-1.17a17.3 17.3 0 0 1-2.69-.5 24.1 24.1 0 0 1-2.4-.76l2.58-6.4c-1.3-.75-2.2-1.34-2.71-1.8a5.3 5.3 0 0 1-1.21-1.57 6.76 6.76 0 0 1-.83-2.21 9.34 9.34 0 0 1-.16-1.91c.01-1 .24-2.09.7-3.29a7.33 7.33 0 0 1 2.57-3.2 79.1 79.1 0 0 0 3.05-2.46 27.75 27.75 0 0 0 2.95-2.96 3.14 3.14 0 0 1-1.83-3c0-.93.32-1.71.97-2.38a3.25 3.25 0 0 1 2.4-1c.92 0 1.72.34 2.38 1 .66.67.99 1.45.99 2.39 0 1.35-.61 2.35-1.83 3a26.8 26.8 0 0 0 2.91 2.95 56.74 56.74 0 0 0 3.1 2.45 7.22 7.22 0 0 1 2.52 3.21c.45 1.2.7 2.3.72 3.29 0 .56-.05 1.2-.17 1.9s-.38 1.46-.8 2.22a6.08 6.08 0 0 1-1.25 1.57c-.5.46-1.39 1.05-2.67 1.8l2.58 6.4c-.73.26-1.55.52-2.45.75-.92.25-1.79.42-2.64.51.39.52.77.9 1.17 1.17.4.26.7.45.9.55.35.2 1.02.3 2 .3a263.35 263.35 0 0 1 2.7-.4 81.13 81.13 0 0 0 2.72-.4c.44.05.89.07 1.34.05a13.12 13.12 0 0 1 1.4.03 9.63 9.63 0 0 1 3.08.82c.3.14.57.29.8.41.25.14.52.37.81.7l-2.43 3.94a2.8 2.8 0 0 0-1.25-.67 4.72 4.72 0 0 0-1.3-.24c-.22 0-.44-.02-.66-.05a2.8 2.8 0 0 0-.75 0l-6.95.96a6.1 6.1 0 0 1-4.86-1.31 20.1 20.1 0 0 1-1.3-1.15c-.33-.32-.6-.96-.81-1.9z" fill="#1f1a17"/><path d="M24.09 23.7v2.11c0 .61.3.92.91.92s.91-.3.91-.92v-2.13h2.24c.58 0 .87-.3.87-.9 0-.6-.3-.89-.87-.89h-2.24v-2.23c0-.61-.3-.92-.91-.92s-.91.3-.91.92v2.23H21.9c-.58 0-.87.3-.87.9 0 .6.29.89.87.89zm7.5 13.75l-1.04-2.54a26.36 26.36 0 0 0-5.55-.54c-2 0-3.84.18-5.5.55l-1.05 2.5a26.7 26.7 0 0 1 6.55-.77c2.29 0 4.48.26 6.6.8zm-2.08-5.12l-.72-1.73v-.67a27.03 27.03 0 0 0-3.79-.27 27.35 27.35 0 0 0-3.77.27l-.02.67-.67 1.73a25.85 25.85 0 0 1 4.46-.37c1.6 0 3.09.13 4.51.37zm-.86 9.38a8.56 8.56 0 0 1-2-2.36h-.78c0 .81.19 1.6.57 2.36zm-5.12 0c.39-.8.58-1.6.58-2.36h-.8a8.08 8.08 0 0 1-2.01 2.36z" fill="url(#a)"/></svg>