<svg clip-rule="evenodd" fill-rule="evenodd" image-rendering="optimizeQuality" shape-rendering="geometricPrecision" text-rendering="geometricPrecision" viewBox="0 0 50 50" xmlns="http://www.w3.org/2000/svg"><linearGradient id="a" gradientUnits="userSpaceOnUse" x1="21.13" x2="77.76" y1="37.22" y2="37.47"><stop offset="0" stop-color="#fff"/><stop offset="1" stop-color="#fff" stop-opacity="0"/></linearGradient><path d="M25.82 12.02h-1.76V8.77H22c-.55 0-.83-.27-.83-.82v-.03c0-.54.28-.8.83-.8h2.07V5c0-.58.3-.87.89-.87.57 0 .87.29.87.87v2.11h2.13c.55 0 .82.27.82.81v.03c0 .55-.27.82-.82.82l-2.11.03zM11.03 37.74l-.81-4.64c-.02 0-.05-.03-.08-.1a2.08 2.08 0 0 0-.71-.45 6.4 6.4 0 0 1-1.35-.99 41.99 41.99 0 0 1-1.7-1.49 8.5 8.5 0 0 1-1.1-1.23A9.24 9.24 0 0 1 3.6 23.8c-.16-1.9.6-3.8 2.3-5.68 1.73-1.88 4.05-2.77 6.98-2.65a16.28 16.28 0 0 1 5.32 1.37l1.5.58.7.4a4.38 4.38 0 0 1-.13-1.04c0-1.29.46-2.39 1.38-3.3a4.64 4.64 0 0 1 6.61-.01c.9.92 1.36 2.02 1.36 3.29 0 .26-.03.6-.1 1.04.23-.15.46-.27.67-.38.76-.33 1.76-.72 3-1.16 1.43-.48 2.7-.75 3.85-.82 2.92-.13 5.24.76 6.94 2.65 1.67 1.9 2.45 3.79 2.33 5.68a9.42 9.42 0 0 1-1.7 5.04c-.34.45-.71.87-1.13 1.26a40.5 40.5 0 0 1-1.66 1.47c-.54.46-1 .8-1.38.98-.38.19-.6.35-.67.46a.3.3 0 0 1-.05.07l-.03.05-.8 4.67 1.65 6.12c-.83.75-2.69 1.36-5.56 1.84-2.88.48-6.2.72-9.97.72-3.84 0-7.21-.26-10.12-.76-2.91-.5-4.74-1.14-5.48-1.9z" fill="#1f1a17"/><path d="M24.95 20.68a2.3 2.3 0 0 0-.13-.43 5.6 5.6 0 0 0-.24-.72l-.2-.43a9.03 9.03 0 0 1-.25-.56l-.19-.45-.19-.54a1.74 1.74 0 0 1-.06-.47c0-.87.41-1.31 1.26-1.31.88 0 1.31.43 1.31 1.28 0 .22-.03.37-.1.48l-.36 1.01c-.26.5-.41.82-.48.97-.12.27-.2.5-.22.72-.05.1-.08.18-.1.26l-.05.19zm-2.78 8.56c-2.06.03-3.95.13-5.67.32-1.71.17-3.03.44-3.98.77a18.97 18.97 0 0 0-1.72-1.86 33 33 0 0 1-1.73-1.74 3.89 3.89 0 0 1-1.23-2.78c0-1.24.2-2.15.62-2.72a3.9 3.9 0 0 1 2.05-1.49 8.49 8.49 0 0 1 2.8-.48c1.2 0 2.33.26 3.43.8 1.07.56 1.78 1 2.13 1.33 1.13 1.15 2 2.38 2.63 3.72.22.5.38 1.2.49 2.08.1.89.17 1.56.18 2.05zm2.78-4.32c.12-.47.21-.79.3-.97.17-.64.35-1.2.57-1.64.1-.28.24-.6.43-.97.19-.38.4-.8.61-1.28.13-.28.27-.63.42-1.04l.45-1.2c.13-.33.2-.68.2-1.06 0-.82-.3-1.5-.87-2.07a2.87 2.87 0 0 0-2.11-.86c-1.97 0-2.96.99-2.96 2.95 0 .38.07.74.2 1.07.37 1.07.65 1.82.85 2.23.22.48.41.9.6 1.28.17.37.34.7.46.98.22.55.4 1.09.55 1.64.04.09.13.41.3.94zm-.89 6.22c0-.66-.02-1.57-.05-2.73a12.72 12.72 0 0 0-.37-2.92c-.68-2.21-1.7-4-3.08-5.36-.72-.7-1.8-1.34-3.27-1.94a13.16 13.16 0 0 0-4.8-.99c-2.6 0-4.54.94-5.8 2.8a6.22 6.22 0 0 0-1.06 3.72c0 1.63.4 2.96 1.18 4 .42.6 1.21 1.33 2.4 2.21 1.16.87 2.16 1.68 2.96 2.43 1.44-.31 3.07-.58 4.88-.82 1.81-.23 4.15-.37 7.01-.4zm13.78 11.73l-.73-2.92a55.9 55.9 0 0 0-12.16-1.11c-4.83 0-8.87.37-12.1 1.1l-.8 2.96c3.14-.96 7.45-1.44 12.92-1.44 2.63 0 5.08.14 7.32.4 2.25.26 4.1.6 5.55 1.02zm-.64-7.41c-3.04-.84-7.1-1.26-12.15-1.26-5.1 0-9.2.43-12.3 1.28l.37 2.51c3.13-.81 7.1-1.22 11.93-1.22 4.81 0 8.73.4 11.75 1.2zm-11.36-4.3c2.84.06 5.18.2 7 .43 1.81.23 3.46.5 4.91.82.9-.9 1.91-1.74 3.02-2.56s1.9-1.5 2.34-2.08a6.62 6.62 0 0 0 1.19-4.02c0-1.47-.36-2.7-1.07-3.7-1.27-1.86-3.22-2.8-5.83-2.8-1.52 0-3.1.33-4.76 1a9.54 9.54 0 0 0-3.28 1.92 11.94 11.94 0 0 0-3.48 8.27c-.03 1.18-.04 2.08-.04 2.73zm1.81-1.92c0-.49.06-1.16.16-2.05.11-.88.28-1.58.5-2.08a12.88 12.88 0 0 1 2.64-3.72 9.55 9.55 0 0 1 2.14-1.33 7.66 7.66 0 0 1 3.44-.8c.93 0 1.85.16 2.77.48.92.33 1.6.82 2.07 1.49.41.55.62 1.46.62 2.72a4 4 0 0 1-1.22 2.78 40.35 40.35 0 0 1-1.7 1.65c-.62.55-1.2 1.2-1.77 1.95-.95-.33-2.3-.6-4-.77a62.09 62.09 0 0 0-5.65-.33z" fill="url(#a)"/></svg>