<svg clip-rule="evenodd" fill-rule="evenodd" image-rendering="optimizeQuality" shape-rendering="geometricPrecision" text-rendering="geometricPrecision" viewBox="0 0 50 50" xmlns="http://www.w3.org/2000/svg"><linearGradient id="a" gradientUnits="userSpaceOnUse" x1="21.25" x2="77.64" y1="37.59" y2="37.47"><stop offset="0" stop-color="#fff"/><stop offset="1" stop-color="#fff" stop-opacity="0"/></linearGradient><path d="M26.18 9.4c2.6.16 5 .83 7.22 2.01a18.96 18.96 0 0 1 5.66 4.51 26.08 26.08 0 0 1 3.08 4.67 28.68 28.68 0 0 1 2.32 5.77 36.51 36.51 0 0 1 1.25 7.46c.18 2.6.26 5.01.26 7.23v5.4h-30.5c-.16 0-.22-.4-.21-1.2 0-.82.06-1.47.16-1.97.06-.4.22-.96.46-1.69.26-.72.66-1.6 1.25-2.65.26-.53.89-1.3 1.88-2.32 1-1.01 2.13-2.2 3.43-3.53a7.93 7.93 0 0 0 1.74-2.88c.42-1.16.6-2.2.53-3.15a8.37 8.37 0 0 1-2 1.22c-3.5 1.25-6.05 3.07-7.62 5.45-.11.15-.48.82-1.11 2.01a5.68 5.68 0 0 1-.85 1.29c-.31.31-.77.5-1.36.53-.92.04-1.64-.4-2.16-1.35-.7.2-1.31.29-1.86.25a5.98 5.98 0 0 1-2.01-1.11 6.27 6.27 0 0 1-1.65-2.54 9.43 9.43 0 0 1-.38-2.72c0-1.4.85-3.23 2.58-5.51 2.02-2.63 3.09-4.63 3.22-6 0-.6.06-1.27.18-2.01a4.2 4.2 0 0 1 .61-1.5l.44-.67c.07-.13.2-.31.41-.56.14-.2.27-.35.37-.46.1-.1.22-.25.38-.44.17-.2.4-.45.69-.74a18.06 18.06 0 0 1-1.07-7.46 19.67 19.67 0 0 1 8.28 5.53 8.36 8.36 0 0 1 3.23-4.54 9.91 9.91 0 0 1 3.15 3.67z" fill="#1f1a17"/><path d="M15.69 17.79l.54-.28c.5-.2.65-.56.47-1.1-.2-.49-.57-.66-1.14-.49a6.55 6.55 0 0 0-4.04 3.92c-.12.55.08.92.6 1.12.51.16.86-.02 1.04-.55.13-.28.23-.46.3-.54.18.14.42.24.71.3 1.01.16 1.6-.28 1.76-1.34a1.5 1.5 0 0 0-.24-1.04zm-4.12 16.76c.06-.15.17-.37.33-.67.27-.7.41-1.1.41-1.24-.03-.46-.27-.7-.72-.7-.33 0-.71.48-1.16 1.42a.97.97 0 0 1-.3.34c-.45.47-.38.86.2 1.17.53.31.94.21 1.24-.32zm14.63-9.2a8.05 8.05 0 0 0 1.71-5.08c-.06-.55-.38-.82-.94-.82-.76 0-1.05.27-.9.83.06.92-.03 1.67-.26 2.26a6.5 6.5 0 0 1-1.27 2.11c-.25.5-.1.87.45 1.1.53.24.93.11 1.21-.4zm-6.47-12.11a6.8 6.8 0 0 1 .05-1.93c-1 .2-1.93.66-2.8 1.39-.53.28-.66.67-.38 1.17.28.5.67.59 1.17.24l.96-.5c.28-.17.61-.29 1-.37zm23.25 31.45c-.02 0 0-.44.04-1.34.13-3.11.1-6.22.07-9.33a26.84 26.84 0 0 0-.89-6.62 28.5 28.5 0 0 0-4.07-9.3c-2.63-3.84-6.81-6.03-11.28-6.97.12.77.03 1.54.07 2.31a25.82 25.82 0 0 1 4.54 2.04c4.24 2.55 6.41 7.27 7.2 11.93 1.27 6.15.45 11.55.81 17.28zM9.44 30.14c.47-.34.52-.73.14-1.2-.4-.38-.83-.41-1.3-.1a3.27 3.27 0 0 0-1.63 2.61c.02.54.35.8.98.77.59-.05.88-.35.86-.92.14-.53.45-.92.95-1.16z" fill="url(#a)"/></svg>