<svg clip-rule="evenodd" fill-rule="evenodd" image-rendering="optimizeQuality" shape-rendering="geometricPrecision" text-rendering="geometricPrecision" viewBox="0 0 50 50" xmlns="http://www.w3.org/2000/svg"><path d="M25 46.45H11.6a13.14 13.14 0 0 1-.98-5.05c0-2.97.86-5.64 2.6-8.01a14.34 14.34 0 0 1 6.7-5.07 6.82 6.82 0 0 1-2.87-2.4 6.26 6.26 0 0 1-1.1-3.63 6.2 6.2 0 0 1 1.73-4.4 6.64 6.64 0 0 1 4.27-2.14 4.6 4.6 0 0 1-2.01-3.9c0-1.34.49-2.5 1.48-3.47A4.92 4.92 0 0 1 25 6.94c1.39 0 2.58.47 3.57 1.44s1.5 2.12 1.5 3.48c0 1.6-.68 2.9-2.02 3.89 1.7.19 3.11.9 4.26 2.15a6.2 6.2 0 0 1 1.74 4.39c0 1.35-.37 2.56-1.13 3.63a7.04 7.04 0 0 1-2.86 2.4 14.34 14.34 0 0 1 6.7 5.07 13.24 13.24 0 0 1 2.6 8.02c0 1.73-.32 3.42-.97 5.04z" fill="#1f1a17"/></svg>