<svg clip-rule="evenodd" fill-rule="evenodd" image-rendering="optimizeQuality" shape-rendering="geometricPrecision" text-rendering="geometricPrecision" viewBox="0 0 50 50" xmlns="http://www.w3.org/2000/svg"><linearGradient id="a" gradientUnits="userSpaceOnUse" x1="21.13" x2="77.64" y1="37.59" y2="37.47"><stop offset="0" stop-color="#fff"/><stop offset="1" stop-color="#fff" stop-opacity="0"/></linearGradient><path d="M25.45 42c-.23.95-.52 1.6-.85 1.96a8.42 8.42 0 0 1-3.42 2.2c-.81.29-1.71.36-2.7.2l-6.97-.96a2.86 2.86 0 0 0-.76 0c-.22.04-.43.05-.64.05-.34 0-.78.08-1.32.24-.54.15-.95.38-1.25.68l-2.4-3.95c.3-.33.55-.56.78-.7.24-.12.51-.26.82-.4a9.18 9.18 0 0 1 3.08-.83c.46-.03.92-.04 1.36-.02a9.8 9.8 0 0 0 1.4-.05c.89.15 1.78.28 2.68.4l2.72.4c.99 0 1.66-.1 2-.3a15 15 0 0 0 .88-.55c.4-.27.8-.66 1.2-1.17a17.3 17.3 0 0 1-2.7-.51 24.1 24.1 0 0 1-2.4-.75l2.59-6.4c-1.3-.75-2.2-1.34-2.71-1.8a5.3 5.3 0 0 1-1.21-1.57 6.79 6.79 0 0 1-.83-2.21 9.34 9.34 0 0 1-.16-1.92c.01-.99.24-2.08.7-3.28a7.33 7.33 0 0 1 2.56-3.21 79.1 79.1 0 0 0 3.06-2.46 27.75 27.75 0 0 0 2.95-2.95 3.14 3.14 0 0 1-1.83-3c0-.93.32-1.72.97-2.39a3.25 3.25 0 0 1 2.4-.99c.92 0 1.72.33 2.38 1 .66.66.99 1.45.99 2.38 0 1.36-.61 2.35-1.83 3a26.8 26.8 0 0 0 2.91 2.95c.98.84 2.02 1.66 3.1 2.46a7.22 7.22 0 0 1 2.51 3.2c.45 1.2.7 2.3.72 3.3 0 .56-.05 1.2-.17 1.9s-.38 1.45-.8 2.22a6.08 6.08 0 0 1-1.24 1.57c-.5.46-1.4 1.05-2.67 1.8l2.58 6.4a28.57 28.57 0 0 1-2.45.75c-.92.25-1.8.41-2.64.5.38.52.77.91 1.17 1.18.4.26.7.45.9.55.34.2 1.01.3 2 .3a263.35 263.35 0 0 1 2.7-.4 81.13 81.13 0 0 0 2.71-.4c.44.05.9.06 1.35.05a13.12 13.12 0 0 1 1.4.02 9.63 9.63 0 0 1 3.08.82l.8.42c.25.13.51.36.8.7l-2.42 3.94a2.8 2.8 0 0 0-1.25-.68 4.73 4.73 0 0 0-1.3-.24c-.22 0-.44-.01-.66-.05a2.8 2.8 0 0 0-.75 0l-6.96.97a6.1 6.1 0 0 1-4.86-1.31 20.04 20.04 0 0 1-1.3-1.15c-.32-.33-.6-.96-.8-1.9z" fill="#1f1a17"/><path d="M26.32 39.2c0 1.09.24 2.02.75 2.8.5.76 1.04 1.36 1.63 1.79.9.67 2.23 1 3.99 1 .43 0 1.28-.1 2.53-.28a74.74 74.74 0 0 1 2.48-.36c.62-.08 1.05-.14 1.27-.19a6.53 6.53 0 0 1 1.98.05c.26.07.56.13.88.2a1.6 1.6 0 0 1 .8.37l1.2-1.93a7.37 7.37 0 0 0-2.16-.72 11.49 11.49 0 0 0-3.3-.15c-.28.03-.65.12-1.1.24a54.85 54.85 0 0 1-4.5.77c-.65 0-1.21-.07-1.7-.24a10.37 10.37 0 0 1-1.28-.54c-.88-.4-1.77-1.34-2.68-2.81zm-1.76 0h-.8c-.93 1.49-1.8 2.43-2.66 2.8-.4.2-.83.38-1.3.55-.5.17-1.04.25-1.67.25a48.97 48.97 0 0 1-4.54-.77 8.83 8.83 0 0 0-1.09-.25c-.95-.11-2.04-.07-3.3.15a7.06 7.06 0 0 0-2.13.72l1.19 1.93c.2-.2.46-.32.78-.38l.88-.18a6.53 6.53 0 0 1 1.98-.06c.22.05.64.11 1.27.19s1.47.2 2.5.36c1.24.18 2.09.28 2.54.28 1.73 0 3.06-.33 3.99-1a6.87 6.87 0 0 0 1.6-1.8c.5-.77.76-1.7.76-2.8zm.89-9.35c1.6 0 3.14.13 4.61.37a6.42 6.42 0 0 0 3.52-2.7 6.75 6.75 0 0 0 .94-3.5 6.69 6.69 0 0 0-2.43-5.01l-3.2-2.66a33.1 33.1 0 0 1-3.44-3.4 34.22 34.22 0 0 1-3.47 3.4A406.55 406.55 0 0 0 18.8 19a6.78 6.78 0 0 0-2.43 5.01c0 1.27.3 2.44.92 3.5a6.31 6.31 0 0 0 3.54 2.7 27.75 27.75 0 0 1 4.62-.37zm0 4.51c1.94 0 3.8.2 5.58.58l-1.19-3.06a28.3 28.3 0 0 0-4.4-.34c-1.5 0-2.97.11-4.4.34l-1.2 3.06c1.77-.38 3.64-.58 5.6-.58zm0-23.54c1.12 0 1.68-.55 1.68-1.68s-.56-1.7-1.68-1.7-1.69.57-1.69 1.7.56 1.68 1.69 1.68zm0 27.01a18.97 18.97 0 0 0 3.28-.28c1.07-.19 2.1-.42 3.1-.68-1.95-.5-4.07-.77-6.38-.77-2.35 0-4.47.26-6.38.77.96.26 1.97.49 3.05.69a19.46 19.46 0 0 0 3.33.27zm-.9-14.33l-2.06-.03c-.56 0-.84-.27-.84-.84 0-.56.28-.84.84-.84h2.07v-2.13c0-.58.3-.88.89-.88.57 0 .87.3.87.88v2.13h2.13c.55 0 .82.28.82.84 0 .57-.28.84-.82.84h-2.13v2.04c0 .6-.3.9-.87.9-.6 0-.9-.3-.9-.9z" fill="url(#a)"/></svg>