<svg clip-rule="evenodd" fill-rule="evenodd" image-rendering="optimizeQuality" shape-rendering="geometricPrecision" text-rendering="geometricPrecision" viewBox="0 0 50 50" xmlns="http://www.w3.org/2000/svg"><linearGradient id="a" gradientUnits="userSpaceOnUse" x1="21.25" x2="77.64" y1="37.22" y2="37.35"><stop offset="0" stop-color="#fff"/><stop offset="1" stop-color="#fff" stop-opacity="0"/></linearGradient><path d="M44.54 14.72a3.3 3.3 0 0 1-2.4-.98c-.66-.65-1-1.45-1-2.4 0-.92.34-1.71 1-2.38.66-.68 1.46-1.01 2.4-1.01.93 0 1.73.33 2.39 1 .66.68.99 1.47.99 2.4 0 .94-.33 1.74-1 2.4a3.28 3.28 0 0 1-2.38.97zm-4.3 29.22c-.82.71-2.64 1.3-5.47 1.79-2.83.47-6.09.72-9.77.72-3.75 0-7.05-.26-9.9-.75-2.84-.5-4.64-1.11-5.38-1.86l1.56-5.95-.69-3.9L8.4 30.2 6.3 14.77l1.2-.47 6.8 11.45.16-13.64 1.68-.3 5.19 13.72 2.77-14.75h1.72l2.78 14.7 5.13-13.66 1.71.3.15 13.64 6.83-11.48 1.16.54-2.06 15.36-2.21 3.79-.7 3.94zM14.53 12a3.3 3.3 0 0 1-2.42-.98 3.25 3.25 0 0 1-.99-2.4c0-.91.33-1.71 1-2.37s1.46-1 2.4-1c.93 0 1.72.34 2.39 1s.98 1.46.98 2.38c0 .94-.33 1.74-.99 2.4a3.27 3.27 0 0 1-2.38.97zM5.4 14.72c-.94 0-1.74-.33-2.39-.98a3.26 3.26 0 0 1-.98-2.4c0-.92.33-1.71.98-2.38.65-.68 1.45-1.01 2.39-1.01.95 0 1.74.33 2.41 1 .66.68 1 1.47 1 2.4 0 .94-.34 1.74-1 2.4a3.32 3.32 0 0 1-2.41.97zm19.55-3.97c-.94 0-1.74-.33-2.4-.99a3.3 3.3 0 0 1-.97-2.4c0-.93.32-1.73.97-2.39a3.25 3.25 0 0 1 2.4-.99c.92 0 1.73.33 2.4.99a3.23 3.23 0 0 1 1 2.39c0 .94-.33 1.74-1 2.4a3.3 3.3 0 0 1-2.4 1zM35.36 12c-.94 0-1.73-.32-2.38-.98a3.27 3.27 0 0 1-.99-2.4c0-.91.33-1.71.99-2.37s1.44-1 2.38-1c.95 0 1.76.34 2.42 1s.99 1.46.99 2.38c0 .94-.33 1.74-1 2.4a3.3 3.3 0 0 1-2.4.97z" fill="#1f1a17" stroke="#1f1a17" stroke-width=".08"/><path d="M38.22 43.04c-3.03-1.25-7.42-1.88-13.17-1.88-5.88 0-10.31.65-13.33 1.93 2.9 1.15 7.32 1.71 13.25 1.71 2.85 0 5.45-.15 7.8-.46a21.3 21.3 0 0 0 5.45-1.3zM24.95 9.02c1.1 0 1.66-.56 1.66-1.66 0-1.1-.55-1.65-1.66-1.65-1.1 0-1.63.55-1.63 1.65 0 1.1.54 1.66 1.63 1.66zm12.62 24.97c-3.19-.8-7.36-1.2-12.52-1.2-5.3 0-9.52.4-12.67 1.23l.37 2.38c3.22-.76 7.32-1.15 12.3-1.15 4.95 0 8.98.38 12.1 1.12zm.62-1.49l1.62-2.85a6.43 6.43 0 0 1-2.43.47c-2.22 0-3.99-.9-5.31-2.7a5.1 5.1 0 0 1-3.33 1.24 4.51 4.51 0 0 1-3.8-1.86 4.96 4.96 0 0 1-7.06.52 6.53 6.53 0 0 1-5.38 2.65 7.05 7.05 0 0 1-2.51-.46l1.73 2.97c3.21-.93 7.62-1.4 13.23-1.4 5.7 0 10.12.48 13.24 1.42zm-11.1-5.92l-2.11-12.14-2.11 12 .34-.26c.38-.75.96-1.12 1.74-1.12.85 0 1.39.37 1.63 1.12.1.1.27.24.5.4zm6.86.47V15.56l-4.1 11.26c.32-.1.59-.26.8-.44.34-.41.79-.63 1.34-.63.66 0 1.2.3 1.6.88l.16.2.2.22zM20 26.7l-4.06-11.14V26.9c.04-.07.12-.15.22-.25.33-.7.87-1.04 1.63-1.04.63 0 1.15.26 1.54.8l.67.3zm-6.3 1.4l-5.33-9.21 1.36 8.38c.94.66 1.87 1 2.75 1 .35 0 .76-.07 1.22-.18zm22.4.11a4.78 4.78 0 0 0 4.1-.76l1.36-8.59zm1.49 12.56l-.75-2.8a56.6 56.6 0 0 0-11.9-1.07c-4.65 0-8.61.35-11.88 1.06l-.77 2.83c3.07-.93 7.3-1.39 12.68-1.39 5.24 0 9.44.45 12.62 1.37zM14.53 10.25c1.09 0 1.64-.54 1.64-1.63s-.55-1.63-1.64-1.63c-1.1 0-1.66.54-1.66 1.63s.56 1.63 1.67 1.63zm20.83 0c1.11 0 1.67-.54 1.67-1.63s-.56-1.63-1.67-1.63c-1.08 0-1.63.54-1.63 1.63s.55 1.63 1.63 1.63zM5.4 13c1.1 0 1.67-.55 1.67-1.65 0-1.1-.56-1.66-1.67-1.66-1.08 0-1.63.55-1.63 1.66 0 1.1.55 1.65 1.63 1.65zm39.14 0c1.1 0 1.64-.55 1.64-1.65 0-1.1-.55-1.66-1.64-1.66-1.1 0-1.66.55-1.66 1.66 0 1.1.56 1.65 1.66 1.65z" fill="url(#a)" stroke="#1f1a17" stroke-width=".08"/></svg>