<svg clip-rule="evenodd" fill-rule="evenodd" image-rendering="optimizeQuality" shape-rendering="geometricPrecision" text-rendering="geometricPrecision" viewBox="0 0 50 50" xmlns="http://www.w3.org/2000/svg">
  <path d="M25 46.4H11.6a13.1 13.1 0 0 1-1-5c0-3 .9-5.6 2.6-8 1.7-2.4 4-4 6.7-5a6.8 6.8 0 0 1-2.9-2.5c-.7-1-1-2.3-1-3.6 0-1.7.5-3.2 1.7-4.4 1.1-1.2 2.6-2 4.3-2.2-1.4-1-2-2.2-2-3.8 0-1.4.4-2.6 1.4-3.5A5 5 0 0 1 25 6.9c1.4 0 2.6.5 3.6 1.5s1.5 2.1 1.5 3.5c0 1.6-.7 2.9-2 3.8 1.6.2 3 1 4.2 2.2a6.2 6.2 0 0 1 1.8 4.4c0 1.3-.4 2.6-1.2 3.6a7 7 0 0 1-2.8 2.4c2.7 1 5 2.7 6.7 5 1.7 2.5 2.6 5.1 2.6 8.1 0 1.7-.4 3.4-1 5z"/>
</svg>
