<svg clip-rule="evenodd" fill-rule="evenodd" image-rendering="optimizeQuality" shape-rendering="geometricPrecision" text-rendering="geometricPrecision" viewBox="0 0 50 50" xmlns="http://www.w3.org/2000/svg">
  <path d="M24.95 10.75c-.94 0-1.75-.33-2.4-.99a3.3 3.3 0 0 1-.97-2.4c0-.93.32-1.73.97-2.39a3.25 3.25 0 0 1 2.4-.99c.92 0 1.73.33 2.4.99a3.23 3.23 0 0 1 1 2.39c0 .94-.33 1.74-1 2.4a3.3 3.3 0 0 1-2.4 1zm15.28 33.2c-.81.7-2.63 1.3-5.46 1.78-2.83.47-6.09.72-9.77.72-3.75 0-7.05-.26-9.9-.75-2.84-.5-4.64-1.11-5.38-1.86l1.56-5.95-.69-3.9L8.4 30.2 6.3 14.77l1.2-.47 6.8 11.45.16-13.64 1.68-.3 5.19 13.72 2.77-14.75h1.72l2.78 14.7 5.13-13.66 1.71.3.15 13.64 6.83-11.48 1.16.54-2.06 15.36-2.21 3.79-.7 3.94zm-25.7-31.96a3.3 3.3 0 0 1-2.4-.97 3.25 3.25 0 0 1-1-2.4c0-.92.33-1.72 1-2.38s1.46-1 2.4-1c.93 0 1.72.34 2.39 1s.98 1.46.98 2.38c0 .94-.33 1.74-.99 2.4a3.27 3.27 0 0 1-2.38.97zm20.83 0c-.94 0-1.73-.32-2.38-.97a3.27 3.27 0 0 1-.99-2.4c0-.92.33-1.72.99-2.38s1.44-1 2.38-1c.95 0 1.76.34 2.42 1s.99 1.46.99 2.38c0 .94-.33 1.74-1 2.4a3.3 3.3 0 0 1-2.4.97zM5.4 14.72c-.94 0-1.74-.33-2.39-.98a3.26 3.26 0 0 1-.98-2.4c0-.92.33-1.71.98-2.38.65-.68 1.45-1.01 2.39-1.01.95 0 1.74.33 2.41 1 .66.68 1 1.47 1 2.4 0 .94-.34 1.74-1 2.4a3.32 3.32 0 0 1-2.41.97zm39.14 0a3.3 3.3 0 0 1-2.4-.98c-.66-.65-1-1.45-1-2.4 0-.92.34-1.71 1-2.38.66-.68 1.46-1.01 2.4-1.01.93 0 1.73.33 2.39 1 .66.68.99 1.47.99 2.4 0 .94-.33 1.74-1 2.4a3.28 3.28 0 0 1-2.38.97z" />
  <path d="M37.2 35.73c-3.04-.84-7.1-1.26-12.15-1.26-5.1 0-9.2.43-12.3 1.28l.37 2.51c3.13-.81 7.1-1.22 11.93-1.22 4.81 0 8.73.4 11.75 1.2zm1.74-4.44c-1.38-.5-3.3-.9-5.8-1.23a64.54 64.54 0 0 0-8.24-.48c-2.95 0-5.64.15-8.09.46-2.44.3-4.38.7-5.78 1.2l1.24 2.25c1.4-.4 3.2-.7 5.41-.89 2.21-.17 4.64-.27 7.27-.27s5.06.1 7.29.27c2.23.2 4.05.5 5.43.92zm-1.1 11.86l-.73-2.93a55.91 55.91 0 0 0-12.16-1.11c-4.83 0-8.87.37-12.1 1.1l-.8 2.96c3.15-.96 7.45-1.44 12.92-1.44 2.63 0 5.08.14 7.32.4 2.25.26 4.1.6 5.55 1.02z" fill="#fff" />
</svg>
