<svg clip-rule="evenodd" fill-rule="evenodd" image-rendering="optimizeQuality" shape-rendering="geometricPrecision" text-rendering="geometricPrecision" viewBox="0 0 50 50" xmlns="http://www.w3.org/2000/svg">
  <path d="M28.4 9.22h4.22v-3.4h6.8v9.3l-5.5 4.24v11.87l4.22 4.21v5.08h3.79v5.93H8.07v-5.93h3.8v-5.08l4.24-4.22V19.36l-5.5-4.24v-9.3h6.77v3.4h4.24v-3.4h6.79z"/>
  <path d="M25.01 35.04H14.74l-1.14 1.07v1.44h22.83v-1.44l-1.15-1.07zM13.6 40.12v2.54h22.83v-2.54zm11.41-27.08h-12.7v1.14l1.82 1.37h21.8l1.76-1.37v-1.14zm0 4.19h-8.68l1.49 1.17v1.41H32.2V18.4l1.48-1.17zm0 13.55h-7.2v1.14l-1.48 1.44H33.7l-1.48-1.44v-1.14z" fill="#fff"/>
</svg>
