<svg clip-rule="evenodd" fill-rule="evenodd" image-rendering="optimizeQuality" shape-rendering="geometricPrecision" text-rendering="geometricPrecision" viewBox="0 0 50 50" xmlns="http://www.w3.org/2000/svg">
  <path d="M25.82 12.02h-1.76V8.77H22c-.55 0-.83-.27-.83-.82v-.03c0-.54.28-.8.83-.8h2.07V5c0-.58.3-.87.89-.87.57 0 .87.29.87.87v2.11h2.13c.55 0 .82.27.82.81v.03c0 .55-.27.82-.82.82l-2.11.03zM11.03 37.74l-.81-4.64c-.02 0-.05-.03-.08-.1a2.08 2.08 0 0 0-.71-.45 6.4 6.4 0 0 1-1.35-.99 41.99 41.99 0 0 1-1.7-1.49 8.5 8.5 0 0 1-1.1-1.23A9.24 9.24 0 0 1 3.6 23.8c-.16-1.9.6-3.8 2.3-5.68 1.73-1.88 4.05-2.77 6.98-2.65a16.28 16.28 0 0 1 5.32 1.37l1.5.58.7.4a4.38 4.38 0 0 1-.13-1.04c0-1.29.46-2.39 1.38-3.3a4.64 4.64 0 0 1 6.61-.01c.9.92 1.36 2.02 1.36 3.29 0 .26-.03.6-.1 1.04.23-.15.46-.27.67-.38.76-.33 1.76-.72 3-1.16 1.43-.48 2.7-.75 3.85-.82 2.92-.13 5.24.76 6.94 2.65 1.67 1.9 2.45 3.79 2.33 5.68a9.42 9.42 0 0 1-1.7 5.04c-.34.45-.71.87-1.13 1.26a40.5 40.5 0 0 1-1.66 1.47c-.54.46-1 .8-1.38.98-.38.19-.6.35-.67.46a.3.3 0 0 1-.05.07l-.03.05-.8 4.67 1.65 6.12c-.83.75-2.69 1.36-5.56 1.84-2.88.48-6.2.72-9.97.72-3.84 0-7.21-.26-10.12-.76-2.91-.5-4.74-1.14-5.48-1.9z"/>
  <path d="M25.8 29.53c2.84.03 5.44.2 7.8.51 2.37.3 4.23.7 5.56 1.15a126.32 126.32 0 0 0 2.06-1.65 12.02 12.02 0 0 0 1.87-1.85 6.3 6.3 0 0 0 1.18-4c0-1.47-.36-2.72-1.07-3.7-1.27-1.86-3.2-2.79-5.8-2.79-1.55 0-3.15.33-4.79.97a10.25 10.25 0 0 0-3.27 1.94 12.6 12.6 0 0 0-3.54 9.42zm-13.25 6.7c3.14-.8 7.3-1.2 12.5-1.2 5.09 0 9.2.38 12.33 1.15l.62-3.65c-3.33-.87-7.67-1.31-13.05-1.31-5.41 0-9.75.45-13.02 1.33zm25.3 4.4l-.74-2.84a57.2 57.2 0 0 0-12.16-1.09c-4.81 0-8.86.37-12.13 1.1l-.8 2.86c3.17-.92 7.48-1.38 12.95-1.38 5.45 0 9.73.45 12.87 1.36zm.65 2.35c-3.2-1.29-7.68-1.94-13.45-1.94-5.99 0-10.52.66-13.6 1.99 2.92 1.15 7.42 1.73 13.52 1.73 2.92 0 5.57-.16 7.96-.48 2.4-.32 4.25-.76 5.57-1.3zM24.08 29.53c-.01-.64-.04-1.29-.07-1.92s-.16-1.35-.37-2.13c-.68-2.2-1.7-4-3.08-5.35-.72-.7-1.8-1.34-3.27-1.94a13.16 13.16 0 0 0-4.8-.99c-2.6 0-4.54.94-5.8 2.8a6.22 6.22 0 0 0-1.06 3.72c0 1.63.4 2.96 1.18 4 .49.61 1.1 1.23 1.84 1.84.75.6 1.44 1.17 2.08 1.66 2.9-1.04 7.34-1.6 13.35-1.69zm.87-4.61c.12-.47.21-.79.3-.97.17-.64.35-1.2.57-1.64.1-.28.24-.6.43-.97.19-.38.4-.8.61-1.28.13-.28.27-.63.42-1.04l.45-1.2c.13-.33.2-.68.2-1.06 0-.82-.3-1.5-.87-2.07a2.87 2.87 0 0 0-2.11-.86c-1.97 0-2.96.99-2.96 2.95 0 .38.07.74.2 1.07.37 1.07.65 1.82.85 2.23.22.48.41.9.6 1.28.17.37.34.7.46.98.22.55.4 1.09.55 1.64l.3.94z" fill="#fff"/>
</svg>
