<svg clip-rule="evenodd" fill-rule="evenodd" image-rendering="optimizeQuality" shape-rendering="geometricPrecision" text-rendering="geometricPrecision" viewBox="0 0 50 50" xmlns="http://www.w3.org/2000/svg">
  <path d="M26.18 9.4c2.6.16 5 .83 7.22 2.01a18.96 18.96 0 0 1 5.66 4.51 26.08 26.08 0 0 1 3.08 4.67 28.68 28.68 0 0 1 2.32 5.77 36.51 36.51 0 0 1 1.25 7.46c.18 2.6.26 5.01.26 7.23v5.4h-30.5c-.16 0-.22-.4-.21-1.2 0-.82.06-1.47.16-1.97.06-.4.22-.96.46-1.69.26-.72.66-1.6 1.25-2.65.26-.53.89-1.3 1.88-2.32 1-1.01 2.13-2.2 3.43-3.53a7.93 7.93 0 0 0 1.74-2.88c.42-1.16.6-2.2.53-3.15a8.37 8.37 0 0 1-2 1.22c-3.5 1.25-6.05 3.07-7.62 5.45-.11.15-.48.82-1.11 2.01a5.68 5.68 0 0 1-.85 1.29c-.31.31-.77.5-1.36.53-.92.04-1.64-.4-2.16-1.35-.7.2-1.31.29-1.86.25a5.98 5.98 0 0 1-2.01-1.11 6.27 6.27 0 0 1-1.65-2.54 9.43 9.43 0 0 1-.38-2.72c0-1.4.85-3.23 2.58-5.51 2.02-2.63 3.09-4.63 3.22-6 0-.6.06-1.27.18-2.01a4.2 4.2 0 0 1 .61-1.5l.44-.67c.07-.13.2-.31.41-.56.14-.2.27-.35.37-.46.1-.1.22-.25.38-.44.17-.2.4-.45.69-.74a18.06 18.06 0 0 1-1.07-7.46 19.67 19.67 0 0 1 8.28 5.53 8.36 8.36 0 0 1 3.23-4.54 9.91 9.91 0 0 1 3.15 3.67z"/>
  <path d="M42.98 44.7c-.02 0 0-.46.04-1.35.05-.9.07-1.88.07-2.92.02-2.07.02-4.2 0-6.41a26.84 26.84 0 0 0-.89-6.62 35.77 35.77 0 0 0-1.86-5.42 21.92 21.92 0 0 0-2.2-3.87 15.04 15.04 0 0 0-4.87-4.54 18.2 18.2 0 0 0-6.42-2.44c.15.81.22 1.61.2 2.39-.03.6-.31.89-.85.89-.6 0-.88-.3-.82-.9a7.27 7.27 0 0 0-2.33-5.6 7.07 7.07 0 0 0-2.03 4.6c-.03.6-.33.85-.9.78-.52-.02-.78-.32-.78-.92l.04-.2c-.68.22-1.39.53-2.13.92-.48.33-.87.25-1.16-.24-.3-.5-.17-.89.4-1.17l1.6-.82a17.63 17.63 0 0 0-4.86-3.52 17.31 17.31 0 0 0 1.9 6.53c.27.42.2.8-.21 1.13-.47.36-.86.31-1.17-.17a8.87 8.87 0 0 1-.5-.9 6.73 6.73 0 0 0-1.3 1.76c-.28.52-.5.94-.63 1.27a2.5 2.5 0 0 0-.19 1.01l.07.86a7.61 7.61 0 0 1-1 2.75 133.71 133.71 0 0 1-2 3.15 127.6 127.6 0 0 1-1.8 2.67c-.4.6-.72 1.36-.93 2.29a4.59 4.59 0 0 0 0 2.04c.14.8.47 1.43.96 1.88.77.77 1.5 1.13 2.21 1.07.23 0 .54-.1.93-.28.4-.18.7-.53.91-1.04.42-.94.78-1.42 1.07-1.42.4 0 .63.24.67.7 0 .1-.14.51-.4 1.24a7.58 7.58 0 0 1-1.02 1.58c.26.95.7 1.11 1.31.5.18-.17.4-.52.62-1.01.24-.5.6-1.17 1.1-2 .58-1 1.2-1.78 1.86-2.4a19.6 19.6 0 0 1 2.85-2.22c.43-.3 1-.58 1.74-.88.57-.22 1.22-.51 1.92-.85a7 7 0 0 0 3.63-4.06c.22-.6.3-1.36.25-2.26-.15-.56.13-.84.84-.84.54 0 .83.28.9.83 0 1.86-.53 3.56-1.6 5.1a7.7 7.7 0 0 1 .28 3.47c-.14 1.01-.5 2.1-1.05 3.25-.56 1.14-1.68 2.42-3.36 3.82-3.43 2.85-5.05 5.78-4.86 8.78H29.4zM9.34 29.6c-.48.3-.77.7-.87 1.2.01.54-.24.84-.77.89-.58.06-.88-.18-.9-.75.07-1.1.56-1.95 1.47-2.6.43-.35.83-.32 1.2.1.36.44.32.83-.13 1.16zM16.7 17.8c.22.33.3.67.25 1.04-.16 1.06-.75 1.5-1.76 1.34a1.6 1.6 0 0 1-.72-.3c-.06.08-.16.26-.3.54-.18.53-.52.71-1.04.55-.5-.2-.71-.57-.6-1.12.75-1.9 2.1-3.2 4.05-3.92.56-.17.94 0 1.11.5.2.53.05.9-.44 1.09a2.75 2.75 0 0 1-.28.13l-.27.15z" fill="#fff"/>
</svg>
