<svg clip-rule="evenodd" fill-rule="evenodd" image-rendering="optimizeQuality" shape-rendering="geometricPrecision" text-rendering="geometricPrecision" viewBox="0 0 50 50" xmlns="http://www.w3.org/2000/svg">
  <path d="M25 46.4H11.6a13.1 13.1 0 0 1-1-5c0-3 .9-5.6 2.6-8 1.7-2.4 4-4 6.7-5a6.8 6.8 0 0 1-2.9-2.5c-.7-1-1-2.3-1-3.6 0-1.7.5-3.2 1.7-4.4 1.1-1.2 2.6-2 4.3-2.2-1.4-1-2-2.2-2-3.8 0-1.4.4-2.6 1.4-3.5A5 5 0 0 1 25 6.9a5 5 0 0 1 3.6 1.5c1 1 1.5 2.1 1.5 3.5 0 1.6-.7 2.9-2 3.8 1.6.2 3 1 4.2 2.2a6.2 6.2 0 0 1 1.8 4.4c0 1.3-.4 2.6-1.2 3.6a7 7 0 0 1-2.8 2.4c2.7 1 5 2.7 6.7 5 1.7 2.5 2.6 5.1 2.6 8.1 0 1.7-.4 3.4-1 5z"/>
  <path d="M25 44.8h12.2a11.8 11.8 0 0 0 .5-3.4c0-2.5-.7-4.8-2.1-6.8-1.5-2-3.3-3.6-5.6-4.5-1.5-.7-1.6-.7-1.6-1.8 0-.8.6-1.5 1.7-1.9a4.8 4.8 0 0 0 1-7.4 5 5 0 0 0-3.1-1.6c-1 0-1.5-.6-1.5-1.6 0-.5.1-.9.5-1.3a3.1 3.1 0 0 0 .3-5 3.3 3.3 0 0 0-4.7 0 3.1 3.1 0 0 0-1 2.4c0 1 .5 2 1.4 2.6.3.4.5.8.5 1.3 0 1-.5 1.5-1.5 1.6a4.9 4.9 0 0 0-3 1.6c-1 1-1.4 2-1.4 3.3 0 1.7.8 3 2.3 4.1 1.1.5 1.7 1 1.7 2s0 1-1.7 1.7c-2.2 1-4 2.4-5.5 4.5a11.7 11.7 0 0 0-1.6 10.2z" fill="#fff"/>
</svg>
