<svg clip-rule="evenodd" fill-rule="evenodd" image-rendering="optimizeQuality" shape-rendering="geometricPrecision" text-rendering="geometricPrecision" viewBox="0 0 50 50" xmlns="http://www.w3.org/2000/svg">
  <path d="M28.4 9.22h4.22v-3.4h6.8v9.3l-5.5 4.24v11.87l4.22 4.21v5.08h3.79v5.93H8.07v-5.93h3.8v-5.08l4.24-4.22V19.36l-5.5-4.24v-9.3h6.77v3.4h4.24v-3.4h6.79z"/>
  <path d="M33.07 17.68l3.15-2.56H13.8l3.18 2.56zm7.2 24.53H9.76v2.55h30.51zm-3.84-5.06H13.6v3.37h22.83zM32.2 19.36H17.8v11.87h14.4zm5.5-5.92V7.5h-3.4v3.4h-7.64V7.5h-3.34v3.4H15.7V7.5h-3.4v5.93zm-1.91 22l-2.55-2.53H16.8l-2.6 2.53z" fill="#fff"/>
</svg>
