<svg clip-rule="evenodd" fill-rule="evenodd" image-rendering="optimizeQuality" shape-rendering="geometricPrecision" text-rendering="geometricPrecision" viewBox="0 0 50 50" xmlns="http://www.w3.org/2000/svg"><path d="M25 42l-1 2a8 8 0 0 1-3 2l-3 1-7-1a3 3 0 0 0-1 0H8l-1 1-2-4v-1l1-1a9 9 0 0 1 3 0h2a10 10 0 0 0 1 0h8l2-2h-3a24 24 0 0 1-2-1l2-6-3-2a5 5 0 0 1-1-2l-1-2a9 9 0 0 1 0-2l1-3 2-3a79 79 0 0 0 4-3 28 28 0 0 0 2-3l-1-3 1-2 2-1 2 1 1 2-1 3a27 27 0 0 0 2 3 57 57 0 0 0 4 3l2 3 1 3v2l-1 2a6 6 0 0 1-1 2l-3 2 2 6a29 29 0 0 1-5 1l2 2h2a263 263 0 0 1 3 0 81 81 0 0 0 3 0h1a13 13 0 0 1 2 0 10 10 0 0 1 3 0l1 1v1l-2 4-1-1h-2a3 3 0 0 0-1 0l-7 1-3-1-2-1-1-1-1-2z"/><path d="M24 24v2l1 1 1-1v-2h2l1-1-1-1h-2v-2l-1-1-1 1v2h-2l-1 1 1 1zm8 13l-1-2a26 26 0 0 0-12 0l-1 2a27 27 0 0 1 14 0zm-2-5l-1-1v-1a27 27 0 0 0-4 0 27 27 0 0 0-4 0v2a26 26 0 0 1 4 0h5zm-1 10l-2-3h-1v3zm-5 0v-3h-1l-2 3z" fill="#fff"/></svg>