<svg clip-rule="evenodd" fill-rule="evenodd" image-rendering="optimizeQuality" shape-rendering="geometricPrecision" text-rendering="geometricPrecision" viewBox="0 0 50 50" xmlns="http://www.w3.org/2000/svg"><path d="M26 12h-2V9h-2l-1-1 1-1h2V5l1-1 1 1v2h2l1 1-1 1h-2zM11 38l-1-5H9l-1-1a42 42 0 0 1-2-2 9 9 0 0 1-1-1l-1-5c-1-2 0-4 2-6s4-3 7-3a16 16 0 0 1 5 2h2v1a4 4 0 0 1 0-1l2-4a5 5 0 0 1 6 0l2 4v0l3-1 4-1c3 0 5 1 7 3s2 4 2 6a9 9 0 0 1-3 6 41 41 0 0 1-1 2l-2 1-1 5 2 6-6 2a61 61 0 0 1-20 0l-6-2z"/><path d="M25 21a2 2 0 0 0 0-1l-1-1v-1a2 2 0 0 1 0-1l1-1 1 1v1a36 36 0 0 0-1 3zm-3 8a63 63 0 0 0-9 1 19 19 0 0 0-2-2 33 33 0 0 1-2-1l-1-3v-3l3-1a8 8 0 0 1 2-1l4 1 2 1 3 4v4zm3-4v-1l1-2v-1a52 52 0 0 0 1-2l1-1v-1l-1-2-2-1c-2 0-3 1-3 3v1l1 2 1 1v1l1 2v1zm-1 6a103 103 0 0 0 0-6l-3-5-4-2-5-1c-2 0-4 1-5 3l-1 4 1 4 2 2 3 2a59 59 0 0 1 12-1zm14 12l-1-3-12-1-12 1-1 3 13-2a63 63 0 0 1 13 2zm-1-8l-12-1-12 1v3l12-1 12 1zm-11-4a67 67 0 0 1 12 1l3-2 2-2 1-4-1-4c-1-2-3-3-6-3l-4 1-4 2a12 12 0 0 0-3 8v3zm2-2v-2-2l3-4 2-1a8 8 0 0 1 4-1l2 1 2 1 1 3-1 3a40 40 0 0 1-2 1l-2 2h-4l-5-1z" fill="#fff"/></svg>