<svg clip-rule="evenodd" fill-rule="evenodd" image-rendering="optimizeQuality" shape-rendering="geometricPrecision" text-rendering="geometricPrecision" viewBox="0 0 50 50" xmlns="http://www.w3.org/2000/svg"><path d="M26 9l7 2 6 5 3 5a29 29 0 0 1 2 5 37 37 0 0 1 2 8v12H15v-1a11 11 0 0 1 2-6l2-2 3-4 2-3 1-3a8 8 0 0 1-2 1c-4 2-6 3-8 6l-1 2-1 1-1 1-2-2H8l-2-1-2-2a9 9 0 0 1 0-3l2-5 4-6v-2a4 4 0 0 1 0-2l1-1 1-1 1-1a18 18 0 0 1-1-7l8 5c0-2 1-3 3-4l3 3z"/><path d="M16 18l1-2h-1c-2 1-4 2-4 4v1l1-1h1l2-1a1 1 0 0 0 0-1zm-4 17v-1-1-1l-2 1a1 1 0 0 1 0 1v1h2zm14-10l2-5-1-1-1 1v3l-1 2v1l1-1zm-6-12a7 7 0 0 1 0-2l-3 2v1h2l1-1zm23 32v-2-9a27 27 0 0 0-1-7l-4-9c-3-4-7-6-11-7v2a26 26 0 0 1 4 2c5 3 7 8 8 12v18zM9 30l1-1H8l-1 2 1 1v-1l1-1z" fill="#fff"/></svg>