<svg clip-rule="evenodd" fill-rule="evenodd" image-rendering="optimizeQuality" shape-rendering="geometricPrecision" text-rendering="geometricPrecision" viewBox="0 0 50 50" xmlns="http://www.w3.org/2000/svg"><path d="M25 11l-2-1-1-3 1-2 2-1 2 1a3 3 0 0 1 1 2l-1 3-2 1zm15 33l-5 2a60 60 0 0 1-20 0l-5-2 1-6v-4l-3-4-2-15 2-1 6 12V12h2l5 14 3-15h2l3 14 5-13h1l1 14 6-12 2 1-2 15-3 4v4zM15 12l-3-1-1-2 1-3 3-1 2 1 1 3-1 2a3 3 0 0 1-2 1zm20 0l-2-1-1-2 1-3 2-1 3 1 1 3-1 2-3 1zM5 15l-2-1-1-3 1-2 2-1 3 1 1 2-1 3a3 3 0 0 1-3 1zm40 0l-3-1-1-3 1-2 3-1 2 1 1 2-1 3a3 3 0 0 1-2 1z"/><path d="M37 36l-12-2-12 2v2l12-1 12 1zm2-5l-6-1a65 65 0 0 0-22 1l1 2h6a91 91 0 0 1 20 1zm-1 12l-1-3-12-1-12 1-1 3 13-1a63 63 0 0 1 13 1z" fill="#fff"/></svg>