<svg clip-rule="evenodd" fill-rule="evenodd" image-rendering="optimizeQuality" shape-rendering="geometricPrecision" text-rendering="geometricPrecision" viewBox="0 0 50 50" xmlns="http://www.w3.org/2000/svg"><path d="M25 42v2a8 8 0 0 1-4 2h-3l-6-1a3 3 0 0 0-1 0h-1l-1 1H8l-3-4h1l1-1a9 9 0 0 1 3-1h1a10 10 0 0 0 2 0 73 73 0 0 0 5 1h2l1-1 1-1h-3a24 24 0 0 1-2-1l3-6-3-2a5 5 0 0 1-1-2l-1-2a9 9 0 0 1 0-2v-3l3-3a79 79 0 0 0 3-3 28 28 0 0 0 3-3c-1 0-2-1-2-3l1-2 2-1 3 1 1 2-2 3a27 27 0 0 0 3 3l3 3 3 3v5l-1 2a6 6 0 0 1-1 2l-3 2 3 6a29 29 0 0 1-3 1h-2l1 1 1 1h2a263 263 0 0 1 3 0 81 81 0 0 0 2-1h2a13 13 0 0 1 1 0 10 10 0 0 1 3 1l1 1h1l-3 4h-1l-1-1h-1a3 3 0 0 0-1 0l-7 1h-2l-2-1a20 20 0 0 1-2-1l-1-2z"/><path d="M26 39l1 3 2 2 4 1h2a75 75 0 0 1 3-1h1a7 7 0 0 1 2 0h1a2 2 0 0 1 1 1l1-2a7 7 0 0 0-2-1h-4-1-2l-2 1h-2a10 10 0 0 1-1-1l-3-3zm-1 0h-1l-3 3-1 1h-2a49 49 0 0 1-4-1 9 9 0 0 0-1 0H9a7 7 0 0 0-2 1l1 2 1-1h1a7 7 0 0 1 2 0h1a82 82 0 0 1 5 1l4-1 2-2 1-3zm0-9h5l4-2a7 7 0 0 0 1-4 7 7 0 0 0-3-5l-3-3a33 33 0 0 1-4-3l-3 3a407 407 0 0 0-3 3l-2 3-1 2 1 4 4 2a28 28 0 0 1 4 0zm0 4l6 1-1-3a28 28 0 0 0-5 0h-4l-1 3 5-1zm0-23c2 0 2-1 2-2l-2-2c-2 0-1 1-1 2l1 2zm0 27a19 19 0 0 0 4 0l3-1a25 25 0 0 0-13 0l3 1a19 19 0 0 0 3 0zm0-14l-3-1v-1h3v-2-1l1 1v2h2l1 1h-3v3h-1z" fill="#fff"/></svg>