<svg clip-rule="evenodd" fill-rule="evenodd" image-rendering="optimizeQuality" shape-rendering="geometricPrecision" text-rendering="geometricPrecision" viewBox="0 0 50 50" xmlns="http://www.w3.org/2000/svg"><path d="M26 12h-2V9h-2l-1-1 1-1h2V5l1-1 1 1v2h2l1 1-1 1h-2zM11 38l-1-5H9l-1-1a42 42 0 0 1-2-2 9 9 0 0 1-1-1l-1-5c-1-2 0-4 2-6s4-3 7-3a16 16 0 0 1 5 2h2v1a4 4 0 0 1 0-1l2-4a5 5 0 0 1 6 0l2 4v0l3-1 4-1c3 0 5 1 7 3s2 4 2 6a9 9 0 0 1-3 6 41 41 0 0 1-1 2l-2 1-1 5 2 6-6 2a61 61 0 0 1-20 0l-6-2z"/><path d="M26 30a67 67 0 0 1 13 1 126 126 0 0 0 2-1 12 12 0 0 0 2-2l1-4-1-4c-1-2-3-3-6-3a13 13 0 0 0-8 3 13 13 0 0 0-3 10zm-13 6l12-1 12 1 1-3-13-2-13 2zm25 5l-1-3-12-1-12 1-1 3 13-2 13 2zm0 2l-13-2-14 2 14 2 8-1 5-1zM24 30v-2-3l-3-5-4-2-5-1c-2 0-4 1-5 3l-1 4 1 4 2 2 2 1 13-1zm1-5v-1l1-2v-1a52 52 0 0 0 1-2l1-1v-1l-1-2-2-1c-2 0-3 1-3 3v1l1 2 1 1v1l1 2v1z" fill="#fff"/></svg>