<svg clip-rule="evenodd" fill-rule="evenodd" image-rendering="optimizeQuality" shape-rendering="geometricPrecision" text-rendering="geometricPrecision" viewBox="0 0 50 50" xmlns="http://www.w3.org/2000/svg"><path d="M26 9l7 2 6 5 3 5a29 29 0 0 1 2 5 37 37 0 0 1 2 8v12H15v-1a11 11 0 0 1 2-6l2-2 3-4 2-3 1-3a8 8 0 0 1-2 1c-4 2-6 3-8 6l-1 2-1 1-1 1-2-2H8l-2-1-2-2a9 9 0 0 1 0-3l2-5 4-6v-2a4 4 0 0 1 0-2l1-1 1-1 1-1a18 18 0 0 1-1-7l8 5c0-2 1-3 3-4l3 3z"/><path d="M43 45v-2-3-6a27 27 0 0 0-1-7l-2-5-2-4-5-4-6-3v3h-1-1c0-3 0-5-2-6l-2 5h-1l-1-1-2 1h-1v-1l2-1a18 18 0 0 0-5-4 17 17 0 0 0 2 7v1h-1a9 9 0 0 1-1-1 7 7 0 0 0-1 2l-1 1v2a8 8 0 0 1-1 3 134 134 0 0 1-2 3 128 128 0 0 1-2 2l-1 3v2l1 2 3 1 1-1v-1l2-1v2a8 8 0 0 1-1 1l1 1 1-1 1-2 2-2a20 20 0 0 1 3-3l1-1h2l2-2 2-2v-3l1-1 1 1-2 5v4l-1 3-3 4c-3 3-5 6-5 9h12zM9 30l-1 1v1l-1-1 1-3h1v2zm8-12v1l-2 1a2 2 0 0 1-1 0l-1 1v-1c0-2 2-3 4-4h1l-1 2z" fill="#fff"/></svg>