<svg clip-rule="evenodd" fill-rule="evenodd" image-rendering="optimizeQuality" shape-rendering="geometricPrecision" text-rendering="geometricPrecision" viewBox="0 0 50 50" xmlns="http://www.w3.org/2000/svg"><path d="M25 46H12a13 13 0 0 1-1-5c0-3 0-5 2-8l7-5a7 7 0 0 1-3-2l-1-4 2-4 4-2-2-4 1-4 4-1 4 1 1 4-2 4 4 2 2 4-1 4a7 7 0 0 1-3 2l7 5 2 8-1 5z"/><path d="M25 45h12a12 12 0 0 0 1-4l-2-6-6-5-2-2 2-2a5 5 0 0 0 1-7l-3-2-2-1 1-1 1-3-1-2-2-1-2 1a3 3 0 0 0-1 2l1 3 1 1-2 1a5 5 0 0 0-3 2l-1 3c0 2 0 3 2 4l2 2-2 2-6 5a12 12 0 0 0-1 10z" fill="#fff"/></svg>