<svg clip-rule="evenodd" fill-rule="evenodd" image-rendering="optimizeQuality" shape-rendering="geometricPrecision" text-rendering="geometricPrecision" viewBox="0 0 50 50" xmlns="http://www.w3.org/2000/svg"><path d="M45 15l-3-1-1-3 1-2 3-1 2 1 1 2-1 3a3 3 0 0 1-2 1zm-5 29l-5 2a60 60 0 0 1-20 0l-5-2 1-6v-4l-3-4-2-15 2-1 6 12V12h2l5 14 3-15h2l3 14 5-13h1l1 14 6-12 2 1-2 15-3 4v4zM15 12l-3-1-1-2 1-3 3-1 2 1 1 3-1 2a3 3 0 0 1-2 1zM5 15l-2-1-1-3 1-2 2-1 3 1 1 2-1 3a3 3 0 0 1-3 1zm20-4l-2-1-1-3 1-2 2-1 2 1a3 3 0 0 1 1 2l-1 3-2 1zm10 1l-2-1-1-2 1-3 2-1 3 1 1 3-1 2-3 1z" stroke="#1f1a17" stroke-width="0"/><path d="M38 43l-13-2-13 2 13 2 8-1 5-1zM25 9l2-2-2-1-2 1 2 2zm13 25l-13-1-13 1 1 2 12-1 12 1zm0-1l2-3a6 6 0 0 1-3 0c-2 0-4-1-5-3l-3 2-4-2a5 5 0 0 1-7 0c-2 2-3 3-6 3a7 7 0 0 1-2 0l2 2 13-1 13 2zm-11-6l-2-13-2 12 2-1 2 1v1zm7 0V16l-4 11 1-1h1l2 1zm-14 0l-4-11v11l2-1h1l1 1zm-6 1l-6-9 2 8 2 1h2zm22 0h1l3-1 2-8zm2 13l-1-3-12-1-12 1-1 3 13-2 13 2zM15 10l1-1-1-2c-2 0-2 1-2 2l2 1zm20 0l2-1-2-2-1 2 1 1zM5 13c2 0 2-1 2-2l-2-1-1 1 1 2zm40 0l1-2-1-1-2 1c0 1 0 2 2 2z" fill="#fff" stroke="#1f1a17" stroke-width="0"/></svg>