<svg viewBox="0 0 2048 2048" xmlns="http://www.w3.org/2000/svg">
  <path d="M1024 1769h489l-12-73H547l-12 73zm0-921q-25-60-62-111 31-48 62-65 30 17 62 65-38 51-62 111zm-97 454q-154 11-303 58-123-108-200-213t-77-202q0-89 74-159t148-70q67 0 135 63t102 130q30 54 75 175t46 218zm-350 217l-26 156 145-84zm447-907q-47 0-136 121-31-36-50-55 93-140 186-140 92 0 186 140-20 19-50 55-90-121-136-121zm0 775q-1-126-42-267t-84-227l-14-27-12-23q-28-43-48-69-51-63-120-105t-134-42q-103 0-208 93T257 949q0 120 99 255t249 259q201-74 419-76zm0 456H448l61-365q-325-280-326-535-1-159 125-274t267-116q78 0 159 47t142 119q61 74 99 165t49 150q12-60 49-150t99-165q61-72 142-119t159-47q140 0 266 116t126 274q-2 255-326 535l61 365zm97-541q0-97 45-218t76-175q34-68 102-130t135-63q74 0 148 70t74 159q0 96-77 202t-200 213q-150-47-303-58zm350 217l-119 72 145 84zm-447-132q217 2 419 76 150-125 249-259t99-255q0-136-105-229t-208-93q-66 0-135 42t-119 105q-21 26-48 69l-12 23-14 27q-44 85-85 227t-41 267zm-139 159l139 86 139-84-139-86zm92-1248v-95h94v95h107v95h-107v153q-48-16-94 0V393H870v-95z" fill="#101010"/>
  <path d="M1401 1445c-78-28-280-63-361-63-13 0-8-93 10-178 47-215 135-398 232-481 104-90 202-111 302-63a338 338 0 0 1 192 223c12 48 13 66 4 114-20 109-81 205-221 348-110 113-114 115-158 100zm123-180c135-141 176-214 177-315 0-68-14-102-62-154-143-156-315-84-434 182-43 95-77 206-83 271-6 61-10 57 85 67 26 3 83 15 126 26l87 21c6 1 53-43 104-98zM523 1379c-240-231-308-403-226-568 11-21 41-59 67-83 104-94 210-117 309-67a507 507 0 0 1 238 277c59 135 104 310 104 400v42l-58 5c-104 10-215 30-284 52l-68 21zm186-36c47-12 107-24 133-27 95-10 90-6 84-70-7-71-57-219-107-316-88-172-210-249-320-203-44 18-116 87-136 130-19 41-21 132-3 180 22 63 71 131 164 228 51 55 95 99 97 99l88-21zm294-393c-16-51-72-164-97-199-13-19-12-22 42-76 38-39 62-57 76-57s38 18 76 57c54 55 55 57 42 76a1305 1305 0 0 0-117 249c-3 0-13-23-22-50zm57-158l32-60-29-31c-15-17-33-31-39-31s-24 14-39 31l-29 31 32 60c17 33 34 60 36 60s19-27 36-60zm-99 796c-32-21-58-39-58-41 0-3 27-22 60-42l60-37 61 37c34 20 61 39 61 43s-115 77-123 76l-61-36zm-402 64c2-8 7-34 10-58 9-66 11-67 62-36 25 15 46 30 46 33s-28 21-61 41c-45 26-60 31-57 20zm873-20c-31-19-58-37-59-40-2-7 87-64 93-58 3 3 26 129 24 130-1 1-27-14-58-32zm-887 101l4-30h950l4 30 3 30H542z" fill="#ececec"/>
</svg>
