<svg viewBox="0 0 2048 2048" xmlns="http://www.w3.org/2000/svg">
  <path d="M502 868l-52 1-26 64 69 21 46-55zm536-187q34 1-16-68t-80-42L826 680zm-338-98q6-39 116-107t220-144l115-154 96 217q342 172 433 418t47 603q-18 128 5 236t57 190l-1242 1q-9-178 39-301t183-238q50-11 83-39t53-59l63-1 138-29 139-97 66-207q0-17-8-34t-12-37q-62 228-161 289t-191 58q-236-42-292 60l-56 102-217-121 115-82-51-50-122 86-12-297zm981 1192q-102-130-85-308t27-363-50-351-316-276q220 164 253 342t16 351-12 329 167 276z" fill="#101010"/>
  <path d="M1601 1693c-81-90-91-157-74-472 20-370-9-495-150-644-29-30-48-55-44-55 17 0 100 59 145 102 57 56 86 108 110 198 35 133 37 202 17 464-20 259-18 312 18 395 10 23 16 43 14 45s-18-13-36-33zM897 621c55-53 60-56 78-44 26 17 76 84 70 94-2 4-50 7-106 7H837zM464 941c-27-6-31-14-21-44 8-22 15-27 34-27 13 0 30 7 38 16 14 15 13 17-3 39-10 12-21 22-24 22l-24-6z" fill="#ececec"/>
</svg>
