<svg viewBox="0 0 2048 2048" xmlns="http://www.w3.org/2000/svg">
  <path d="M590 1519q4 72-15 158l134-86zm434 324H441q114-231 58-456T296 937l-19 2q-54 0-92-38t-39-93 39-92 92-39 93 39 38 92q0 20-6 38-4 14-15 33l196 139 100-486q-64-31-72-103-5-44 29-91t88-53q54-5 96 29t48 88q7 68-46 114l198 412 198-412q-54-46-46-114 6-54 48-88t96-29q54 6 88 53t29 91q-9 72-72 103l100 486 196-139q-12-19-15-33-6-18-6-38 0-54 39-92t92-39 93 39 38 92-38 93-93 38l-19-2q-147 224-203 450t58 456zm0-450q109 0 222 29t213 67q2-41 11-89-108-42-221-68t-225-26-225 26-221 68q8 48 11 89 99-39 212-67t223-29zm0 376h478q-15-34-24-73H570q-10 39-24 73zm434-250l-119 72 134 86q-20-86-15-158zm-573 47l139 87 139-84-139-86z" fill="#101010"/>
  <path d="M555 1759l10-31 9-27h900l9 27 10 31c0 2-211 3-469 3s-469-2-469-3zm397-157l-58-37 65-37 65-37 61 36c33 20 60 39 60 42 0 8-109 71-123 71-6 0-37-17-70-38zm461 31c-27-18-49-36-50-41 0-4 21-21 45-37l46-28 5 67c3 37 5 68 4 69l-50-30zm-824-180l-2-39c-2-23 204-81 343-97 72-8 115-8 184 0 141 16 349 74 347 97l-2 39-1 29-102-33c-134-43-211-55-332-55s-198 12-332 55l-102 33zm-1 150l5-69c1-4 24 7 52 25 28 17 47 34 43 38s-29 20-55 37l-49 31z" fill="#ececec"/>
</svg>
