<svg viewBox="0 0 2048 2048" xmlns="http://www.w3.org/2000/svg">
  <path d="M1024 356q66 0 64-66 1-55-64-55-66 0-64 55-3 66 64 66zm0 1204q0 114-101 199t-223 84H205q0-117 65-179t142-62h250q51 0 88-7t71-60l10-16h76q-7 21-3 13-45 105-109 125t-146 19H409q-52 0-86 40t-34 53h424q66 0 159-65t93-185H624q67-116 72-229-114-119-162-223t-6-224q33-96 118-189t312-247q-17-11-46-36t-29-79q0-58 41-96t100-38q58 0 100 38t41 96q0 54-29 79t-46 36q226 153 311 247t119 189q42 119-6 224t-162 223q4 113 72 229h-341q0 120 93 185t159 65h424q0-13-34-53t-86-40h-240q-83 0-146-19t-109-125q4 8-3-13h76l10 16q33 53 70 60t89 7h250q76 0 142 62t65 179h-495q-123 0-223-84t-101-199zm0-114h283q-28-84-29-154-120-41-254-38-135-3-254 38-2 70-29 154zm0-267q159-1 285 42 189-180 142-346-60-193-427-431-368 238-427 431-48 166 142 346 125-43 285-42zm-47-361V714h94v104h95v89h-95v165h-94V907h-95v-89z" fill="#101010"/>
  <path d="M980 333a54 54 0 0 1 0-78c36-36 104-10 104 39 0 30-29 57-60 57-15 0-34-8-44-18zm-288 830c-86-103-119-218-86-300 24-59 88-146 153-208 67-63 194-161 244-188l27-15 91 66c230 168 347 324 333 443-7 59-46 139-98 202l-44 53-64-18c-53-14-90-17-224-17s-172 3-225 17l-63 18zm384-166v-82h95V811h-95V706H972v105h-96v104h96v165h104zm-330 445l13-50c7-26 13-58 13-71 0-21 5-26 50-39 71-22 331-23 402-1l48 15 10 60c5 32 13 66 16 74 5 13-17 14-274 14-153 0-278-1-278-2zm-434 297c38-54 46-56 256-61 105-3 205-10 222-16 39-12 87-60 108-105 13-29 20-35 40-35 23 0 24 2 19 28-15 85-59 137-154 185l-59 30H293zm932-4c-96-48-135-94-150-174-7-38-7-39 15-39 19 1 28 10 52 50 54 94 92 106 327 106 184 0 205 6 245 59l22 28h-451z" fill="#f9f9f9"/>
</svg>
