<svg viewBox="0 0 2048 2048" xmlns="http://www.w3.org/2000/svg">
  <path d="M977 298v-95h94v95h107v95h-107v153q-48-16-94 0V393H870v-95zm47 314q-47 0-136 121-31-36-50-55 93-140 186-140 92 0 186 140-20 19-50 55-90-121-136-121zm-447 907l-26 156 145-84zm410-206q-1-147-36-274t-81-194q-45-88-131-153t-169-65q-103 0-208 93T257 949q0 109 87 236t202 223q212-88 441-95zm37 530H448l61-365q-325-280-326-535-1-159 125-274t267-116q78 0 159 47t142 119q61 74 99 165t49 150q12-60 49-150t99-165q61-72 142-119t159-47q140 0 266 116t126 274q-2 255-326 535l61 365zm0-74h489l-50-298q-216-84-439-84t-439 84l-50 298zm447-250l26 156-145-84zm-410-206q229 7 441 95 115-96 202-223t87-236q0-136-105-229t-208-93q-83 0-169 65t-131 153q-46 66-81 194t-36 274zm-176 233l141-84 137 86-141 84z" fill="#101010"/>
  <g fill="#f9f9f9">
    <path d="M467 1325c-134-140-200-260-201-370-1-88 20-141 83-208 139-149 297-149 438-2 62 65 107 143 142 246 28 83 52 208 52 274 0 44-9 50-70 50-55 1-185 27-278 58l-91 29zm545-348c-9-44-58-155-89-200l-30-43 32-40c79-95 119-95 198 0l32 40-30 43c-31 45-80 156-89 200-7 33-17 33-24 0z"/>
    <path d="M470 1326c-144-161-192-247-199-354-5-79 9-132 47-183 16-21 29-42 29-46 0-5 4-9 10-9s24-12 41-27c77-68 174-87 259-50 156 67 266 245 310 502 23 139 17 157-56 157-58 0-162 21-264 53l-98 30c-6 1-42-32-79-73zm940 45c-89-29-219-55-273-56-63 0-70-5-70-56 0-67 24-190 52-272 35-100 81-178 142-242 141-147 299-147 438 2 63 67 84 120 83 208-1 74-26 141-85 229-42 63-161 196-186 209-9 4-45-3-101-22zm-866 363c8-50 15-58 91-102l71-41-47-28c-72-44-78-50-72-72 6-21 81-49 212-77 103-22 347-22 450 0 131 28 206 56 212 77 6 22 0 28-72 72l-47 28 71 41c76 44 83 52 91 102l5 33H539zm550-138c38-23 68-45 66-50s-32-27-68-49l-66-41-67 40c-38 23-69 45-71 50-2 6 122 91 134 91l72-41z"/>
  </g>
</svg>
