<svg viewBox="0 0 2048 2048" xmlns="http://www.w3.org/2000/svg">
  <path d="M1004 1092q31 17 54 42 21-15 37-13t33-2q78-11 129-85t52-165l-19-67q-55 239-188 257l-45 6q-24 3-53 27zM746 643l-46-60q6-39 116-107t220-144l115-154 96 217q342 172 433 418t47 603q-18 128 5 237t57 190H547q-9-178 39-301t183-238q78-16 115-71t55-85q-236-42-292 60l-56 102-217-121 115-82-51-50-122 86-12-297 396-263q12 18 23 31t23 29L380 884l4 125 64-41 138 144-78 65 47 28 39-45 108-73q54-18 165-27t191 74q-56 63-91 133t-152 102q-92 79-146 177t-48 223h1019q-35-133-32-234t13-199 9-205-41-253q-51-126-134-234t-262-188l-59-133-49 69-208 131q-109 69-131 120zm292 30l-212-2 116-100q30-25 80 39t16 63zM502 868l37 31-46 55-57-26 33-56z" fill="#101010"/>
  <path d="M628 1706c7-76 31-139 76-205 56-80 94-116 155-144 71-32 79-40 135-124 62-95 76-108 115-109 42 0 95-25 129-61 56-59 86-170 64-238l-11-33-24 71c-34 101-65 146-123 176-18 9-43 16-55 16s-36 6-54 13c-28 12-36 12-75-1-46-15-144-12-222 7-43 11-160 85-168 107-6 16-24 17-39 3-7-8-1-18 26-42l36-31-70-73-70-74-30 15-30 14-6-39-5-52c0-7 82-66 182-133 100-66 193-133 206-149 36-44 49-53 191-143 96-60 137-92 151-114l20-32 29 66c26 59 34 68 66 82a693 693 0 0 1 379 498c20 96 20 149 3 521-5 91-3 132 8 185l14 76c0 5-214 8-504 8H622zM528 884c-27-29-56-26-77 9-22 37-22 39 11 53 27 11 30 10 56-15l29-27zm523-232c-4-27-52-82-76-88s-41 4-107 65l-48 44 117-2c112-2 117-3 114-19z" fill="#f9f9f9"/>
</svg>
