<svg viewBox="0 0 2048 2048" xmlns="http://www.w3.org/2000/svg">
  <path d="M520 1769h1008q8-97-132-182-132-101-196-239t-80-309H928q-15 170-79 309t-197 239q-141 85-132 182zm504 74H446v-74q-4-80 42-137t125-108q117-91 172-217t78-268H576l284-239q-86-74-86-188 0-103 73-177t177-74q103 0 177 74t73 177q0 114-86 188l284 239h-287q23 141 78 268t172 217q79 51 125 108t42 137v74zM756 974h536l-225-191q134-31 134-171 0-76-52-126t-125-51q-73 0-125 51t-52 126q0 140 134 171z" fill="#101010"/>
  <g fill="#f9f9f9">
    <path d="M873 881c57-48 104-90 106-94s-14-14-33-23c-153-68-108-302 61-322 35-4 51-1 90 18 130 64 133 247 5 304-19 9-34 20-33 23 2 4 49 46 106 94l102 87H771z"/>
    <path d="M781 962c0-4 7-11 16-16 21-14 179-153 182-161 2-4-7-9-19-12-13-3-23-9-23-12s-10-12-21-18c-50-27-73-128-44-195l12-33c2-11 35-41 45-41 4 0 8-3 8-7 0-14 82-27 116-20 51 12 117 63 126 97 20 73 20 103-1 143-16 31-66 78-92 86-11 3-18 9-17 12 4 9 162 148 182 161 9 5 16 12 16 16s-109 6-243 6-243-3-243-6zm-260 796c0-16 26-72 41-90 8-9 50-45 93-79a700 700 0 0 0 266-473l11-69h184l11 69a699 699 0 0 0 248 457c115 93 134 114 147 170l6 24h-504c-340 0-503-3-503-9z"/>
  </g>
</svg>
