<svg viewBox="0 0 2048 2048" xmlns="http://www.w3.org/2000/svg">
  <path d="M1024 1769h478q-53-130-43-280-100-39-213-67t-222-29q-110 0-223 29t-212 67q9 150-43 280zm0-450q111 0 224 27t220 67q17-105 61-212t105-213l-220 155-123-601-267 555-267-555-123 601-220-155q61 105 105 213t61 212q108-41 221-67t223-27zm0 524H441q114-231 58-456T296 937l-19 2q-54 0-92-38t-39-93 39-92 92-39 93 39 38 92q0 20-6 38-4 14-15 33l196 139 100-486q-64-31-72-103-5-44 29-91t88-53q54-5 96 29t48 88q7 68-46 114l198 412 198-412q-54-46-46-114 6-54 48-88t96-29q54 6 88 53t29 91q-9 72-72 103l100 486 196-139q-12-19-15-33-6-18-6-38 0-54 39-92t92-39 93 39 38 92-38 93-93 38l-19-2q-147 224-203 450t58 456zM276 746q-62 0-62 62t62 62q63 0 63-62t-63-62zm466-394q-62 0-62 62t62 62 62-62-62-62zM590 1519l119 72-134 86q19-86 15-158zm1182-773q-63 0-63 62t63 62q62 0 62-62t-62-62zm-466-394q-62 0-62 62t62 62 62-62-62-62zm152 1167l-119 72 134 86q-20-86-15-158zm-573 47l139-83 139 86-139 84z" fill="#101010"/>
  <g fill="#f9f9f9">
    <path d="M577 1374c-14-67-53-173-92-257-23-50-41-92-39-94s46 26 97 62l94 67 59-285 61-297c2-7 61 109 132 258s132 271 135 271 64-122 135-271 131-265 132-258l61 297 59 285 94-67c51-36 95-64 97-62s-12 36-31 76c-39 76-79 184-96 258-5 25-13 45-16 45l-85-25c-143-45-213-57-350-57s-207 12-350 57c-44 14-82 25-85 25-4 0-9-12-12-28z"/>
    <path d="M559 1747c3-10 8-29 10-42 4-16 24-34 74-65 38-23 68-45 68-48 1-3-27-22-60-42-34-20-61-41-61-47 0-13 141-60 251-84 111-24 255-24 366 0 110 24 251 71 251 84 0 6-27 27-61 47s-61 39-60 42c0 3 29 24 65 46 63 40 74 53 87 108l5 21H553zm538-133c36-22 66-42 66-45 0-7-128-89-139-89-15 0-140 80-137 88 3 10 121 85 135 85 5 1 39-17 75-39zm641-757c-28-17-28-81 0-99 36-22 93 9 93 50s-57 72-93 49zm-454-389c-34-13-46-68-21-93 18-18 68-18 86 0 16 16 18 55 3 75-13 16-48 25-68 18zm-564 0c-34-13-46-68-21-93 18-18 68-18 86 0 16 16 18 55 3 75-13 16-48 25-68 18zM234 847a54 54 0 0 1 0-78c18-18 56-23 76-11 28 18 28 82 0 100-20 12-58 6-76-11z"/>
  </g>
</svg>
