<svg viewBox="0 0 2048 2048" xmlns="http://www.w3.org/2000/svg">
  <path d="M1024 1501H643l5-74h752l5 74zm0-661H692l5-74h654l5 74zm0 1003H383l29-264 159-118 50-659-149-107-17-341h289v147h137V354h286v147h137V354h289l-17 341-149 107 50 659 159 118 29 264zm0-74h557l-15-149-161-119-54-735 152-109 13-230h-138v148h-285V427H955v148H670V427H532l13 230 152 109-54 735-161 119-15 149z" fill="#101010"/>
  <path d="M656 1378c5-49 38-500 38-518 0-11 45-13 330-13s330 2 330 13c0 18 33 469 38 518l4 42H652zm-31-670l-74-53-6-71c-3-39-6-90-6-112l-1-42h130v148h295V430h122v148h295V430h130l-1 42c0 22-3 73-6 112l-6 71-74 53-74 52H699zM472 1752l10-73 5-58 79-57 80-58h756l80 58 79 57 5 58 10 73c4 14-26 15-552 15s-556-1-552-15z" fill="#f9f9f9"/>
</svg>
